<?xml version="1.0" encoding="utf-8"?>
<!-- Generator: Adobe Illustrator 21.0.0, SVG Export Plug-In . SVG Version: 6.00 Build 0)  -->
<svg version="1.1" id="Layer_1" xmlns="http://www.w3.org/2000/svg" xmlns:xlink="http://www.w3.org/1999/xlink" x="0px" y="0px"
	 viewBox="0 0 1200 690" style="enable-background:new 0 0 1200 690;" xml:space="preserve">
<style type="text/css">
	.st0{fill:#F5F5F5;}
	.st1{fill:#E0E0E0;}
	.st2{fill:#EBEBEB;}
	.st3{fill:#FAFAFA;}
	.st4{fill:#263238;}
	.st5{fill:#455A64;}
	.st6{fill:#E63946;}
	.st7{opacity:0.3;}
	.st8{fill:#FFFFFF;}
	.st9{fill:#FFBE9D;}
	.st10{fill:#EB996E;}
	.st11{opacity:0.3;enable-background:new    ;}
</style>
<g>
	<g id="freepik--background-complete--inject-157">
		<path class="st0" d="M718.7,292.2H892l-28.2,20.4v40.1c0,4.6-3.7,8.4-8.4,8.4l0,0H718.7c-4.6,0-8.4-3.7-8.4-8.4c0,0,0,0,0,0v-52.1
			C710.4,295.9,714.1,292.2,718.7,292.2z"/>
		<path class="st1" d="M726,320.5c0,0.2,26.1,0.3,58.4,0.3s58.4-0.1,58.4-0.3s-26.1-0.3-58.4-0.3S726,320.3,726,320.5z"/>
		<path class="st1" d="M726,335.9c0,0.2,26.1,0.3,58.4,0.3s58.4-0.1,58.4-0.3s-26.1-0.3-58.4-0.3S726,335.7,726,335.9z"/>
		<rect x="447.5" y="144.3" class="st1" width="8.1" height="27.2"/>
		<rect x="379.8" y="140.4" class="st1" width="8.1" height="31.1"/>
		<rect x="396.7" y="133.9" class="st1" width="8.1" height="37.6"/>
		<rect x="413.6" y="136" class="st1" width="8.1" height="35.5"/>
		<rect x="430.6" y="124" class="st1" width="8.1" height="47.5"/>
		<rect x="464.4" y="124.2" class="st1" width="8.1" height="47.3"/>
		<rect x="481.4" y="139.7" class="st1" width="8.1" height="31.8"/>
		<rect x="498.3" y="126.3" class="st1" width="8.1" height="45.2"/>
		<rect x="515.2" y="116.1" class="st1" width="8.1" height="55.4"/>
		<rect x="532.2" y="126" class="st1" width="8.1" height="45.5"/>
		<path class="st2" d="M753.9,169l67-10.3c5.7,37-19.7,71.7-56.8,77.3c-37,5.7-71.7-19.7-77.3-56.8c-5.7-37,19.7-71.7,56.8-77.3
			c5.9-0.9,11.9-1,17.8-0.4L753.9,169z"/>
		<path class="st1" d="M775.7,101.7l-8.1,52l51.1-9.6C818.6,144.1,811,115,775.7,101.7z"/>
		<path class="st0" d="M69.2,295.1c-0.2-18.4,14.5-33.4,32.8-33.6s33.4,14.5,33.6,32.8c0.2,18.3-14.4,33.4-32.7,33.6
			C84.6,328.1,69.5,313.4,69.2,295.1z M118.4,294.3c-0.2-8.8-7.5-15.7-16.2-15.5c-8.8,0.2-15.7,7.5-15.5,16.2
			c0.2,8.7,7.4,15.7,16.1,15.5C111.5,310.3,118.5,303.1,118.4,294.3C118.4,294.3,118.4,294.3,118.4,294.3z"/>
		<path class="st1" d="M69.2,295.1c-0.3-18.4,14.3-33.6,32.7-33.9l0.3,17.4c-8.8,0.3-15.7,7.8-15.4,16.6c0.3,8.5,7.3,15.3,15.8,15.4
			l0.3,17.4C84.6,328.1,69.5,313.4,69.2,295.1z"/>
		<path class="st2" d="M99,258.4c21-0.5,38.4,16.1,38.9,37.1c0,0.3,0,0.5,0,0.8l-20.3,0.3c-0.2-10.3-8-16.8-18.2-16.6L99,258.4z"/>
		<rect x="243" y="412.3" class="st0" width="42.3" height="50.2"/>
		<rect x="53.5" y="409" class="st1" width="191" height="56.7"/>
		<path class="st1" d="M286.5,413.8h-47.2V409h47.2c1.3,0,2.4,1.1,2.4,2.4l0,0C288.9,412.8,287.8,413.8,286.5,413.8z"/>
		<path class="st1" d="M286.5,465.7h-47.2v-4.8h47.2c1.3,0,2.4,1.1,2.4,2.4l0,0C288.9,464.7,287.8,465.7,286.5,465.7z"/>
		<rect x="206.9" y="409" class="st2" width="22.6" height="56.7"/>
		<rect x="71.6" y="409.7" class="st2" width="22.6" height="56.7"/>
		<path class="st1" d="M285.2,420.6c0,0.1-9.1,0.3-20.4,0.3s-20.4-0.1-20.4-0.3s9.1-0.3,20.4-0.3S285.2,420.5,285.2,420.6z"/>
		<path class="st1" d="M285.2,428.2c0,0.1-9.1,0.2-20.4,0.2s-20.4-0.1-20.4-0.2c0-0.1,9.1-0.3,20.4-0.3S285.2,428,285.2,428.2z"/>
		<path class="st1" d="M285.2,437.4c0,0.1-9.1,0.2-20.4,0.2s-20.4-0.1-20.4-0.2s9.1-0.3,20.4-0.3S285.2,437.3,285.2,437.4z"/>
		<path class="st1" d="M285.2,446.7c0,0.1-9.1,0.3-20.4,0.3s-20.4-0.1-20.4-0.3s9.1-0.2,20.4-0.2S285.2,446.6,285.2,446.7z"/>
		<path class="st1" d="M285.2,456c0,0.1-9.1,0.3-20.4,0.3s-20.4-0.1-20.4-0.3s9.1-0.2,20.4-0.2S285.2,455.9,285.2,456z"/>
		<rect x="108.8" y="432.3" class="st2" width="85.9" height="10.2"/>
		<rect x="241.9" y="466.8" class="st3" width="42.9" height="30.6"/>
		<rect x="59.8" y="465.7" class="st0" width="182.6" height="32.8"/>
		<path class="st0" d="M241.1,467.9h46.1c0.6,0,1.1-0.5,1.1-1.1l0,0l0,0c0-0.6-0.5-1.1-1.1-1.1h-46.1V467.9z"/>
		<path class="st0" d="M241.1,496.3h46.7c0.3,0,0.5,0.2,0.5,0.5l0,0v1.2c0,0.3-0.2,0.5-0.5,0.5l0,0h-46.7l0,0V496.3L241.1,496.3z"/>
		<path class="st1" d="M284.8,472.6c0,0.1-9.5,0.3-21.2,0.3c-11.7,0-21.2-0.1-21.2-0.3c0-0.1,9.5-0.3,21.2-0.3
			C275.3,472.4,284.8,472.5,284.8,472.6z"/>
		<path class="st1" d="M284.8,478.4c0,0.1-9.5,0.3-21.2,0.3c-11.7,0-21.2-0.1-21.2-0.3s9.5-0.2,21.2-0.2
			C275.3,478.2,284.8,478.3,284.8,478.4z"/>
		<path class="st1" d="M284.8,484.2c0,0.1-9.5,0.2-21.2,0.2c-11.7,0-21.2-0.1-21.2-0.2s9.5-0.3,21.2-0.3
			C275.3,484,284.8,484.1,284.8,484.2z"/>
		<path class="st1" d="M284.8,490c0,0.1-9.5,0.2-21.2,0.2c-11.7,0-21.2-0.1-21.2-0.2c0-0.1,9.5-0.3,21.2-0.3
			C275.3,489.8,284.8,489.9,284.8,490z"/>
		<rect x="247.5" y="501.5" class="st2" width="43.8" height="83"/>
		<rect x="42" y="498.6" class="st1" width="205.6" height="90"/>
		<path class="st1" d="M294.7,588.5h-52.8v-5.8h52.8c1.6,0,2.9,1.3,2.9,2.9l0,0C297.7,587.2,296.4,588.5,294.7,588.5z"/>
		<path class="st1" d="M241.9,498.6h54.4c0.7,0,1.3,0.6,1.3,1.3l0,0v3.2c0,0.7-0.6,1.3-1.3,1.3h0h-54.4l0,0V498.6L241.9,498.6z"/>
		<path class="st1" d="M291.3,512.6c0,0.1-9.8,0.3-21.9,0.3c-12.1,0-21.9-0.1-21.9-0.3c0-0.1,9.8-0.2,21.9-0.2
			C281.5,512.3,291.3,512.5,291.3,512.6z"/>
		<path class="st1" d="M291.3,523.2c0,0.1-9.8,0.2-21.9,0.2c-12.1,0-21.9-0.1-21.9-0.2c0-0.1,9.8-0.3,21.9-0.3
			C281.5,523,291.3,523.1,291.3,523.2z"/>
		<path class="st1" d="M291.3,533.9c0,0.1-9.8,0.3-21.9,0.3c-12.1,0-21.9-0.1-21.9-0.3s9.8-0.3,21.9-0.3
			C281.5,533.6,291.3,533.7,291.3,533.9z"/>
		<path class="st1" d="M291.3,544.5c0,0.1-9.8,0.3-21.9,0.3c-12.1,0-21.9-0.1-21.9-0.3c0-0.1,9.8-0.2,21.9-0.2
			C281.5,544.3,291.3,544.4,291.3,544.5z"/>
		<path class="st1" d="M291.3,555.2c0,0.1-9.8,0.2-21.9,0.2c-12.1,0-21.9-0.1-21.9-0.2c0-0.1,9.8-0.3,21.9-0.3
			C281.5,554.9,291.3,555,291.3,555.2z"/>
		<path class="st1" d="M291.3,565.8c0,0.1-9.8,0.3-21.9,0.3c-12.1,0-21.9-0.1-21.9-0.3s9.8-0.3,21.9-0.3
			C281.5,565.6,291.3,565.7,291.3,565.8z"/>
		<path class="st1" d="M291.3,576.4c0,0.1-9.8,0.3-21.9,0.3c-12.1,0-21.9-0.1-21.9-0.3c0-0.1,9.8-0.2,21.9-0.2
			C281.5,576.2,291.3,576.3,291.3,576.4z"/>
		<path class="st2" d="M112.3,548.5v5c0,6.1-3,9.5-8.8,9.5c-5.8,0-8.8-3.4-8.8-9.5v-19.6c0-6.1,3-9.5,8.8-9.5c5.8,0,8.8,3.5,8.8,9.5
			v3.6h-5.6v-4c0-2.7-1.2-3.7-3.1-3.7c-1.8,0-3.1,1-3.1,3.7v20.3c0,2.7,1.2,3.6,3.1,3.6c1.9,0,3.1-1,3.1-3.6v-5.4H112.3z"/>
		<path class="st2" d="M115.4,533.9c0-6.1,3.2-9.5,9-9.5s9,3.5,9,9.5v19.6c0,6.1-3.2,9.5-9,9.5s-9-3.4-9-9.5V533.9z M121.3,553.8
			c0,2.7,1.2,3.7,3.1,3.7s3.1-1,3.1-3.7v-20.3c0-2.7-1.2-3.7-3.1-3.7s-3.1,1-3.1,3.7V553.8z"/>
		<path class="st2" d="M137.2,524.9h5.9v32.3h9.7v5.4h-15.6V524.9z"/>
		<path class="st2" d="M155,533.9c0-6.1,3.2-9.5,9-9.5s9,3.5,9,9.5v19.6c0,6.1-3.2,9.5-9,9.5s-9-3.4-9-9.5V533.9z M160.9,553.8
			c0,2.7,1.2,3.7,3.1,3.7s3.1-1,3.1-3.7v-20.3c0-2.7-1.2-3.7-3.1-3.7c-1.9,0-3.1,1-3.1,3.7V553.8z"/>
		<path class="st2" d="M182.4,524.9v29.1c0,2.7,1.2,3.6,3.1,3.6s3.1-1,3.1-3.6v-29.1h5.6v28.7c0,6-3,9.5-8.8,9.5s-8.8-3.5-8.8-9.5
			v-28.7H182.4z"/>
		<path class="st2" d="M210.6,562.6c-0.5-1.5-0.7-3.1-0.5-4.6V552c0-3.5-1.2-4.8-3.9-4.8h-2.1v15.3h-5.9v-37.7h8.9
			c6.1,0,8.8,2.9,8.8,8.7v3c0,3.9-1.2,6.4-3.9,7.6c3,1.2,3.9,4.1,3.9,8v5.8c-0.1,1.6,0.1,3.1,0.7,4.6L210.6,562.6z M204.1,530.3
			v11.6h2.3c2.2,0,3.6-1,3.6-4v-3.7c0-2.7-0.9-3.9-3-3.9H204.1z"/>
		<path class="st1" d="M111,478.7h-4.3l0.2-1.1h9.9l-0.2,1.1h-4.3l-2.2,11.1h-1.3L111,478.7z"/>
		<path class="st1" d="M125.2,480.6l-6.7,10.4c-1.1,1.8-2,2.3-3.3,2.3c-0.8,0-1.6-0.3-2.2-0.8l0.7-0.9c0.4,0.4,1,0.7,1.6,0.7
			c0.8,0,1.4-0.4,2.1-1.5l0.6-1l-2.3-9.1h1.2l1.9,7.8l5-7.8L125.2,480.6z"/>
		<path class="st1" d="M135.4,484.4c0.2,2.9-2,5.3-4.9,5.5c-0.1,0-0.2,0-0.3,0c-1.5,0.2-2.9-0.7-3.5-2l-1,5.3h-1.2l2.5-12.6h1.2
			l-0.3,1.5c0.9-1,2.3-1.6,3.6-1.5c2-0.1,3.8,1.5,3.9,3.5C135.4,484.1,135.4,484.3,135.4,484.4z M134.2,484.5c0.1-1.5-1-2.8-2.5-2.9
			c-0.2,0-0.4,0-0.5,0c-2.2,0-4,1.8-4,4c0,0.1,0,0.2,0,0.4c-0.1,1.5,1,2.8,2.5,2.9c0.2,0,0.4,0,0.6,0c2.2,0,4-1.8,4-4
			C134.1,484.7,134.1,484.6,134.2,484.5L134.2,484.5z"/>
		<path class="st1" d="M136.8,486c-0.1-2.9,2.1-5.3,5-5.5c0.1,0,0.2,0,0.3,0c2.6,0,4.2,1.5,4.2,3.9c0.1,2.9-2.1,5.3-5,5.5
			c-0.1,0-0.2,0-0.3,0c-2.1,0.2-3.9-1.3-4.2-3.4C136.8,486.3,136.8,486.1,136.8,486z M145.1,484.5c0.1-1.5-1-2.8-2.5-2.9
			c-0.2,0-0.4,0-0.5,0c-2.2,0-4,1.9-4,4.1c0,0.1,0,0.1,0,0.2c-0.1,1.5,1,2.8,2.5,2.9c0.2,0,0.4,0,0.5,0c2.2,0,4-1.8,4-4.1
			C145.1,484.6,145.1,484.5,145.1,484.5z"/>
		<path class="st1" d="M158.2,480.6l-1.6,8.1c-0.6,3.3-2.4,4.6-5.3,4.6c-1.5,0.1-2.9-0.4-4.1-1.4l0.7-0.9c0.9,0.8,2.2,1.3,3.5,1.2
			c2,0.2,3.8-1.3,4-3.3c0,0,0,0,0,0l0.2-1c-0.9,1-2.3,1.6-3.6,1.6c-2.4,0-4.1-1.4-4.1-3.6c-0.1-2.8,2.1-5.1,4.9-5.2
			c0.1,0,0.2,0,0.3,0c1.5-0.2,3,0.7,3.6,2.1l0.4-2L158.2,480.6z M156.1,484.2c0-1.7-1.1-2.7-3-2.7c-2.2-0.1-3.9,1.6-4,3.8
			c0,0.1,0,0.2,0,0.3c0,1.7,1.1,2.7,3,2.7c2.2,0.1,3.9-1.6,4-3.8C156.1,484.4,156.1,484.3,156.1,484.2L156.1,484.2z"/>
		<path class="st1" d="M166.3,480.5l-0.2,1.2h-0.3c-2,0-3.3,1.1-3.7,3.4l-0.9,4.7h-1.2l1.8-9.2h1.2l-0.4,1.7
			C163.4,481.1,164.8,480.4,166.3,480.5z"/>
		<path class="st1" d="M176.9,480.6l-1.8,9.2h-1.2l0.3-1.4c-0.9,1-2.2,1.6-3.6,1.5c-2,0.2-3.8-1.3-4-3.4c0-0.2,0-0.3,0-0.5
			c-0.2-2.9,2-5.3,4.9-5.5c0.1,0,0.2,0,0.3,0c1.5-0.2,2.9,0.6,3.5,2l0.4-1.9L176.9,480.6z M174.8,484.5c0.1-1.5-1-2.8-2.5-2.9
			c-0.2,0-0.4,0-0.5,0c-2.2,0-4,1.9-4,4.1c0,0.1,0,0.2,0,0.2c-0.1,1.5,1,2.8,2.5,2.9c0.2,0,0.4,0,0.5,0c2.2,0,4-1.8,4-4.1
			C174.8,484.6,174.8,484.5,174.8,484.5L174.8,484.5z"/>
		<path class="st1" d="M188.8,484.4c0.2,2.9-2,5.3-4.9,5.5c-0.1,0-0.2,0-0.3,0c-1.5,0.2-2.9-0.7-3.5-2l-1,5.3h-1.2l2.5-12.6h1.2
			l-0.3,1.5c0.9-1,2.2-1.6,3.6-1.5c2-0.1,3.8,1.4,4,3.5C188.8,484.1,188.8,484.2,188.8,484.4z M187.6,484.5c0.1-1.5-1-2.8-2.5-2.9
			c-0.2,0-0.4,0-0.5,0c-2.2,0-4,1.8-4,4c0,0.1,0,0.3,0,0.4c-0.1,1.5,1,2.8,2.5,2.9c0.2,0,0.4,0,0.6,0c2.2,0,4-1.8,4-4
			C187.5,484.7,187.5,484.6,187.6,484.5L187.6,484.5z"/>
		<path class="st1" d="M199.9,483.5c0,0.4,0,0.7-0.1,1l-1,5.2h-1.2l1.1-5.2c0.1-0.3,0.1-0.6,0.1-0.8c0-1.3-0.8-2.1-2.4-2.1
			c-1.9-0.1-3.5,1.3-3.7,3.2l-1,4.9h-1.2l2.6-13h1.2l-1,5.2c0.9-1,2.2-1.5,3.5-1.4C198.8,480.5,199.9,481.6,199.9,483.5z"/>
		<path class="st1" d="M211.5,480.6l-6.7,10.4c-1.1,1.8-2,2.3-3.3,2.3c-0.8,0-1.6-0.3-2.2-0.8l0.7-0.9c0.4,0.4,1,0.7,1.6,0.7
			c0.8,0,1.4-0.4,2.1-1.5l0.7-1l-2.3-9.1h1.2l1.9,7.8l5-7.8L211.5,480.6z"/>
		<path class="st0" d="M239.2,102.7H52.7l30.4,21.9v43.1c0,5,4,9,9,9c0,0,0,0,0,0h147.1c5,0,9-4,9-9v0v-56
			C248.3,106.7,244.2,102.7,239.2,102.7C239.2,102.7,239.2,102.7,239.2,102.7z"/>
		<path class="st1" d="M231.4,133.2c0,0.2-28.1,0.3-62.8,0.3s-62.8-0.2-62.8-0.3s28.1-0.3,62.8-0.3S231.4,133,231.4,133.2z"/>
		<path class="st1" d="M231.4,149.7c0,0.2-28.1,0.3-62.8,0.3s-62.8-0.1-62.8-0.3c0-0.2,28.1-0.3,62.8-0.3S231.4,149.6,231.4,149.7z"
			/>
	</g>
	<g id="freepik--Table--inject-157">
		<path class="st4" d="M886.1,588.5c0,0.2-190.7,0.3-425.9,0.3s-425.9-0.1-425.9-0.3c0-0.2,190.7-0.3,425.9-0.3
			S886.1,588.4,886.1,588.5z"/>
	</g>
	<g id="freepik--Plants--inject-157">
		<path class="st5" d="M806,526.5c0,0-32.2-37.1-44.4-74.2c-12.2-37.1-6.4-32.8-6.4-32.8s16.4,36,28.9,53.4
			c12.5,17.4,34.7,42.9,34.7,42.9L806,526.5z"/>
		<path class="st5" d="M812.5,425.2c-0.5-0.9-1.6-1.2-2.5-0.8c-0.7,0.4-1.1,1.2-0.9,2c2,13,6.2,43.6,6.1,63.4
			c-0.2,25.8,0,35.7,0,35.7h13.4c0,0-2.4-53.3-5.4-69.5C820.9,444.7,816.4,432,812.5,425.2z"/>
		<path class="st5" d="M819.8,521.2c5.6-12.7,9.3-26.2,11-40.1c1.1-9.5-0.9-22.3-3.8-39.4c-1.1-6.3-1.7-12.6-1.7-19
			c0-1.8,1.5-3.2,3.2-3.2c1.2,0,2.2,0.6,2.8,1.7c1.6,2.9,6.3,12.8,7.5,18.9c3.2,16.9,6.9,25.3,4.1,41.3c-2.8,16-13.2,40.7-13.2,40.7
			L819.8,521.2z"/>
		<path class="st5" d="M831.9,522.3c0,0,35.4-76.1,37.9-87.3c2.5-11.3,10.8-37.3,11.8-35.8s2.4,15.2-3.9,30.9
			c-6.4,15.7-33.6,94.5-33.6,94.5h-12.1"/>
		<path class="st4" d="M815.9,518.9c-0.3-0.2-0.7-0.4-1-0.7c-0.6-0.5-1.6-1.1-2.7-2.1c-3.3-2.6-6.5-5.4-9.5-8.4
			c-10-9.8-18.6-20.9-25.7-33c-7.1-12.1-12.9-24.8-17.5-38c-1.8-5-3.1-9.2-3.9-12.1c-0.4-1.4-0.7-2.6-0.9-3.3
			c-0.1-0.4-0.2-0.8-0.3-1.2c0.2,0.4,0.3,0.7,0.4,1.1l1.1,3.3c0.9,2.8,2.3,7,4.1,12c4.7,13.1,10.7,25.7,17.7,37.8
			c7.1,12,15.6,23.1,25.4,33c3.8,3.8,7,6.6,9.3,8.5c1.1,1,2.1,1.7,2.7,2.2C815.3,518.3,815.6,518.6,815.9,518.9z"/>
		<path class="st4" d="M819.8,482.4c-0.2-0.7-0.3-1.5-0.3-2.2c-0.2-1.6-0.4-3.6-0.6-6.1c-0.6-5.2-1.4-12.2-2.7-20
			c-1.3-7.8-2.7-14.8-3.7-19.9c-0.5-2.4-1-4.5-1.3-6c-0.2-0.7-0.3-1.5-0.4-2.2c0.3,0.7,0.5,1.4,0.7,2.2c0.4,1.4,0.9,3.4,1.5,5.9
			c1.2,5,2.7,12,4,19.9c1.3,7.8,2,14.9,2.4,20.1c0.2,2.6,0.4,4.7,0.4,6.1C819.8,480.9,819.8,481.7,819.8,482.4z"/>
		<path class="st4" d="M828.1,420.7c0.2,0.3,0.3,0.6,0.4,1c0.3,0.7,0.6,1.7,1.1,2.8c0.4,1.2,1,2.7,1.5,4.5c0.5,1.8,1.2,3.8,1.7,6.1
			l0.9,3.6c0.3,1.2,0.5,2.6,0.8,3.9c0.6,2.7,0.9,5.6,1.4,8.7c1.6,13.4,1.1,27-1.4,40.2c-0.6,3-1.2,5.9-2,8.6
			c-0.4,1.3-0.7,2.6-1.1,3.8c-0.4,1.2-0.8,2.4-1.1,3.5c-0.7,2.2-1.5,4.2-2.2,5.9s-1.3,3.2-1.8,4.4l-1.2,2.7
			c-0.1,0.3-0.3,0.6-0.5,0.9c0.1-0.3,0.2-0.7,0.4-1l1.1-2.8c0.5-1.2,1.1-2.7,1.7-4.4c0.6-1.8,1.4-3.7,2-6c0.3-1.1,0.7-2.3,1.1-3.5
			c0.4-1.2,0.7-2.5,1-3.8c0.7-2.7,1.2-5.5,1.9-8.5c2.5-13.2,3-26.7,1.4-40c-0.4-3.1-0.7-6-1.3-8.7c-0.3-1.3-0.5-2.7-0.7-3.9
			c-0.3-1.2-0.6-2.4-0.8-3.6c-0.5-2.3-1.1-4.3-1.6-6.1s-1-3.3-1.4-4.5s-0.7-2.1-0.9-2.9C828.2,421.5,828.1,421.1,828.1,420.7z"/>
		<path class="st4" d="M881.1,400.7c0,0.1,0,0.2,0,0.3c0,0.3-0.1,0.6-0.2,1c-0.2,0.9-0.4,2.2-0.7,3.8c-0.7,3.3-1.8,8-3.6,13.7
			s-4.2,12.4-7,19.8c-2.9,7.4-6.2,15.4-9.3,23.9c-3.1,8.5-5.7,16.9-8,24.4s-4.5,14.3-6.6,19.9c-1.6,4.4-3.5,8.8-5.6,13
			c-0.7,1.5-1.4,2.6-1.8,3.4l-0.5,0.9c-0.1,0.1-0.1,0.2-0.2,0.3c0-0.1,0.1-0.2,0.1-0.3l0.4-0.9c0.4-0.8,1-1.9,1.7-3.5
			c1.4-3,3.3-7.4,5.3-13.1c2-5.6,4.1-12.4,6.4-20c2.3-7.6,4.7-15.9,7.9-24.5c3.2-8.5,6.5-16.6,9.4-23.9c2.9-7.3,5.4-14,7.2-19.7
			s3.1-10.3,3.8-13.6c0.4-1.6,0.6-2.9,0.8-3.7c0.1-0.4,0.2-0.7,0.2-1C881,400.9,881,400.8,881.1,400.7z"/>
		<path class="st5" d="M772,383.9c-1.2-1.2-3.2-1.1-4.3,0.1c-0.8,0.8-1,2-0.7,3c1.2,3.9,2.7,7.7,4.5,11.4
			c4.9,10.3,19.2,47.4,25.9,67.8c6.7,20.4,16.1,58.4,16.1,58.4l14.3-2.3c0,0-13.1-62.4-25.8-85C791.5,419.3,781.3,393.2,772,383.9z"
			/>
		<path class="st4" d="M801.1,479c0.3,0.5,0.6,1.1,0.7,1.7c0.4,1.1,1,2.7,1.6,4.8c1.3,4.1,2.9,9.7,4.5,16.1c1.6,6.4,3,12.1,3.9,16.3
			c0.4,2,0.8,3.6,1.1,4.9c0.2,0.6,0.3,1.2,0.3,1.8c-0.3-0.6-0.5-1.2-0.6-1.8c-0.3-1.3-0.8-2.9-1.3-4.9l-4.1-16.2
			c-1.6-6.3-3.1-12-4.3-16.1l-1.4-4.9C801.4,480.2,801.2,479.6,801.1,479z"/>
		<path class="st4" d="M820.5,523.5c0-0.1-0.1-0.2-0.1-0.4c0-0.3-0.1-0.7-0.2-1.1c-0.1-1-0.3-2.4-0.6-4.3c-0.5-3.7-1.5-9.2-3-15.7
			c-1.8-7.7-4.1-15.3-6.7-22.8c-2.9-8.5-6.6-17.6-10.8-27.1c-8.4-18.9-16.8-35.7-22.3-48.1c-2.8-6.2-4.9-11.2-6.4-14.8
			c-0.7-1.8-1.2-3.1-1.6-4.1c-0.2-0.4-0.3-0.8-0.4-1.1c-0.1-0.1-0.1-0.2-0.1-0.4c0,0,0.1,0.1,0.2,0.3c0.1,0.2,0.3,0.6,0.5,1l1.7,4
			c1.5,3.5,3.7,8.5,6.6,14.6c5.6,12.3,14.1,29.1,22.5,48c4.2,9.5,7.8,18.7,10.7,27.2c2.6,7.5,4.8,15.2,6.6,23
			c1.2,5.2,2.1,10.5,2.8,15.8c0.3,1.9,0.3,3.4,0.4,4.4c0,0.5,0.1,0.8,0.1,1.1C820.5,523.2,820.5,523.3,820.5,523.5z"/>
		<path class="st4" d="M827.6,522.3c-0.2-0.8-0.4-1.6-0.5-2.4c-0.3-1.7-0.7-3.9-1.1-6.6c-1-5.5-2.4-13.2-4.6-21.4s-4.6-15.7-6.4-21
			l-2.2-6.2c-0.3-0.8-0.6-1.5-0.8-2.3c0.4,0.7,0.7,1.5,1,2.2c0.6,1.4,1.5,3.6,2.4,6.2c2.6,6.9,4.8,13.9,6.6,21
			c1.8,7.1,3.3,14.3,4.4,21.6c0.4,2.8,0.7,5,0.9,6.6C827.6,520.7,827.6,521.5,827.6,522.3z"/>
		<rect x="801.2" y="520.3" class="st6" width="55.8" height="67.9"/>
		<g class="st7">
			<rect x="801.2" y="520.3" width="55.8" height="67.9"/>
		</g>
		<rect x="789.7" y="520.3" class="st6" width="49.5" height="67.9"/>
		<path class="st5" d="M114.3,496.7c-9.5-6.1-22.7-6.2-31.9,0.3c-8.8,6.1-13.2,17.3-12.9,28c0.4,10.7,5.6,23.8,15.3,29.4l28.5-0.1
			c9.3-6.7,15-17.3,15.7-28.7C129.3,514.2,123.8,502.7,114.3,496.7z"/>
		<path class="st4" d="M100.3,555.4c-0.1-0.8-0.2-1.6-0.2-2.4c0-1.8-0.1-4-0.2-6.7c-0.1-5.6-0.4-13.4-0.7-22
			c-0.4-8.6-0.8-16.4-1.2-22c-0.2-2.7-0.3-4.9-0.4-6.7c-0.1-0.8-0.1-1.6,0-2.4c0.2,0.8,0.3,1.6,0.4,2.4c0.2,1.6,0.4,3.8,0.7,6.7
			c0.5,5.6,1.1,13.4,1.5,22s0.5,16.4,0.5,22c0,2.8,0,5.1-0.1,6.7C100.5,553.8,100.4,554.6,100.3,555.4z"/>
		<path class="st4" d="M72.4,522.5c0,0.2-1.6,0.3-3.5,0.2c-1.9-0.2-3.4-0.5-3.4-0.7c0-0.2,1.6-0.3,3.5-0.2
			C70.9,521.9,72.4,522.2,72.4,522.5z"/>
		<path class="st4" d="M72.9,512.9c-0.1,0.2-1.4-0.1-3-0.8s-2.7-1.4-2.6-1.7s1.4,0.1,3,0.8C71.9,511.9,73,512.7,72.9,512.9z"/>
		<path class="st4" d="M77.9,505.8c-0.1,0.2-1.6-0.5-3.2-1.8c-1.6-1.3-2.5-2.6-2.4-2.8c0.2-0.2,1.4,0.8,2.9,2.1S78,505.5,77.9,505.8
			z"/>
		<path class="st4" d="M82.9,499c-0.2,0.1-0.9-1-1.6-2.5s-1-2.8-0.8-2.9s0.9,1,1.6,2.5S83.1,498.9,82.9,499z"/>
		<path class="st4" d="M90.6,494.3c-0.2,0.1-1-1.1-1.5-2.7c-0.5-1.7-0.6-3.1-0.3-3.1c0.2,0,0.7,1.2,1.2,2.8
			C90.6,492.9,90.9,494.2,90.6,494.3z"/>
		<path class="st4" d="M103.6,488.9c0.2,0.1,0.1,1.1-0.3,2.3c-0.4,1.2-0.9,2.1-1.2,2c-0.3-0.1-0.1-1.1,0.3-2.3
			C102.8,489.7,103.4,488.8,103.6,488.9z"/>
		<path class="st4" d="M113.3,493c0.2,0.2-0.4,1-1.4,1.9s-1.8,1.4-2,1.2c-0.2-0.2,0.4-1,1.4-1.9C112.2,493.4,113.1,492.9,113.3,493z
			"/>
		<path class="st4" d="M121.8,498.5c0.1,0.2-0.6,1-1.7,1.7c-1.1,0.7-2.1,1.1-2.2,0.9s0.6-1,1.7-1.7S121.7,498.3,121.8,498.5z"/>
		<path class="st4" d="M127.8,506.7c0.1,0.2-1.1,1-2.7,1.6s-2.9,1-3,0.8s1.1-1,2.7-1.6C126.4,506.8,127.7,506.5,127.8,506.7z"/>
		<path class="st4" d="M130.2,515.6c0,0.2-1.2,0.6-2.7,0.8c-1.5,0.2-2.8,0.1-2.8-0.1c0-0.3,1.2-0.6,2.7-0.8
			C128.9,515.3,130.2,515.4,130.2,515.6z"/>
		<path class="st4" d="M131.4,526.6c-0.1,0.2-1.4-0.1-2.9-0.8c-1.5-0.6-2.6-1.4-2.5-1.6s1.4,0.1,2.9,0.8
			C130.4,525.6,131.5,526.4,131.4,526.6z"/>
		<path class="st4" d="M130.3,536c-0.1,0.2-1.7-0.2-3.4-1.3c-1.7-1.1-2.7-2.4-2.5-2.6s1.4,0.8,3,1.8C129,535,130.4,535.8,130.3,536z
			"/>
		<path class="st4" d="M125.4,544.6c-0.1,0.2-1.4-0.6-2.7-1.9c-1.2-1.3-1.9-2.7-1.7-2.8c0.2-0.1,1.2,0.9,2.4,2.2
			C124.7,543.3,125.6,544.4,125.4,544.6z"/>
		<path class="st4" d="M78.9,545.6c0.1,0.2-1.2,1.2-3.1,2.1c-1.8,0.9-3.3,1.5-3.5,1.3c-0.2-0.2,1.2-1.2,3-2.1S78.7,545.4,78.9,545.6
			z"/>
		<path class="st4" d="M74.6,537.8c0.1,0.2-1,0.9-2.4,1.6c-1.4,0.7-2.7,1-2.8,0.8c-0.1-0.2,1-0.9,2.4-1.6
			C73.2,538,74.5,537.6,74.6,537.8z"/>
		<path class="st4" d="M71.5,530.9c0,0.2-1.3,0.6-3,0.9c-1.7,0.2-3.1,0.2-3.1,0s1.3-0.6,3-0.9C70,530.7,71.4,530.7,71.5,530.9z"/>
		<path class="st4" d="M81.7,527.2c0.1,0.2-1.2,0.9-3,1s-3.2-0.1-3.1-0.4c0-0.2,1.4-0.4,3-0.5C80.3,527.1,81.7,526.9,81.7,527.2z"/>
		<path class="st4" d="M90.3,518.7c0.1,0.2-1,0.8-2.4,0.9c-1.5,0.1-2.5-0.2-2.5-0.4c0-0.2,1.1-0.4,2.4-0.5
			C89.1,518.6,90.2,518.5,90.3,518.7z"/>
		<path class="st4" d="M91.9,511.9c-0.1,0.2-1.2,0.1-2.5-0.4c-1.3-0.4-2.3-1-2.2-1.2s1.2-0.1,2.5,0.4C91,511.2,92,511.7,91.9,511.9z
			"/>
		<path class="st4" d="M95,505c-0.2,0.2-0.9-0.3-1.5-1.3c-0.6-1-0.6-1.9-0.4-1.9c0.2-0.1,0.7,0.6,1.2,1.5
			C94.9,504.1,95.2,504.9,95,505z"/>
		<path class="st4" d="M91.2,533.2c0.1,0.2-0.9,0.7-2.2,1c-0.6,0.2-1.2,0.2-1.8,0.3l-0.2-0.5c0.3,0,0.5,0,0.6,0.1s-0.1,0.3-0.4,0.5
			l-0.2-0.5c0.6-0.3,1.2-0.5,1.8-0.6C90.1,533,91.2,532.9,91.2,533.2z"/>
		<path class="st4" d="M93,545.2c0.1,0.2-1.2,0.9-2.8,1.6c-1.6,0.6-3,1-3.1,0.7c-0.1-0.2,1.2-0.9,2.8-1.6
			C91.4,545.3,92.9,545,93,545.2z"/>
		<path class="st4" d="M83.4,539.9c0.1,0.2-0.8,0.7-1.9,1.1c-1.1,0.4-2.1,0.5-2.2,0.3c-0.1-0.2,0.8-0.7,1.9-1.1
			C82.3,539.7,83.3,539.6,83.4,539.9z"/>
		<path class="st4" d="M84.1,515.3c0,0.2-1.5,0.1-3.2-0.5c-1.7-0.6-2.9-1.4-2.8-1.6c0.1-0.2,1.5,0.2,3.1,0.8
			C82.9,514.6,84.2,515.1,84.1,515.3z"/>
		<path class="st4" d="M107.4,512.7c0.1,0.2-0.7,1-1.8,1.7c-1.1,0.8-2.2,1.2-2.3,1s0.7-1,1.8-1.7S107.3,512.5,107.4,512.7z"/>
		<path class="st4" d="M108.7,524.8c0,0.2-0.8,0.6-1.9,0.9s-2,0.2-2.1,0c-0.1-0.2,0.8-0.6,1.9-0.9S108.6,524.5,108.7,524.8z"/>
		<path class="st4" d="M110.2,538.4c-0.1,0.2-1.3-0.1-2.8-0.8c-1.4-0.7-2.4-1.4-2.4-1.6s1.3,0.1,2.8,0.8
			C109.1,537.4,110.2,538.1,110.2,538.4z"/>
		<path class="st4" d="M107,551.6c-0.2,0.2-1-0.5-1.8-1.5c-0.8-1-1.2-1.9-1.1-2c0.1-0.2,1,0.5,1.8,1.5S107.2,551.4,107,551.6z"/>
		<path class="st4" d="M106.4,503.8c0.2,0.2-0.4,0.9-1.3,1.3c-0.9,0.4-1.8,0.5-1.8,0.2c-0.1-0.2,0.6-0.6,1.4-1
			C105.5,503.9,106.2,503.6,106.4,503.8z"/>
		<path class="st4" d="M117.8,516c0.1,0.2-1,0.8-2.4,1c-1.5,0.2-2.6-0.1-2.6-0.3c0-0.2,1.1-0.4,2.4-0.6
			C116.5,515.9,117.7,515.7,117.8,516z"/>
		<path class="st4" d="M115.5,505c0.1,0.2-0.9,1-2.4,1.4c-1.5,0.5-2.8,0.5-2.8,0.2s1.1-0.6,2.5-1.1
			C114.2,505.1,115.4,504.8,115.5,505z"/>
		<path class="st4" d="M120.3,532.9c0,0.2-1.8,0.4-4,0c-2.2-0.4-3.8-1.2-3.6-1.4c0.1-0.2,1.8,0.1,3.9,0.5
			C118.6,532.4,120.3,532.7,120.3,532.9z"/>
		<path class="st4" d="M116.1,548.8c-0.1,0.2-1.5-0.6-2.8-1.9c-1.3-1.3-2.1-2.6-1.9-2.8c0.2-0.2,1.2,0.9,2.5,2.2
			C115.2,547.6,116.2,548.6,116.1,548.8z"/>
		<path class="st4" d="M97.4,492c-2.9,1.8-5.6,3.9-8,6.3c-5.5,6.1-9,13.7-9.9,21.9c-0.4,4.5-0.2,9,0.6,13.4
			c0.7,3.6,1.5,7.2,2.5,10.8c0.9,3,1.7,5.5,2.2,7.1c0.3,0.9,0.6,1.7,0.8,2.7c-0.4-0.8-0.8-1.7-1.1-2.5c-0.6-1.7-1.5-4.1-2.5-7.1
			c-1.1-3.5-2-7.2-2.7-10.8c-0.9-4.5-1.1-9.1-0.7-13.7c0.9-8.4,4.6-16.2,10.4-22.3c1.8-1.8,3.8-3.3,5.9-4.6c0.6-0.4,1.2-0.7,1.8-0.9
			C96.9,492.2,97.2,492.1,97.4,492z"/>
		<path class="st4" d="M109.8,554.9c-0.2-0.1,2-3.6,4.1-9.7c2.7-8.1,3.6-16.6,2.4-25.1c-0.6-4.7-1.9-9.2-3.9-13.5
			c-1.6-3.4-3.9-6.5-6.6-9.2c-1.9-1.7-4.1-3.1-6.5-4.1c-1.7-0.7-2.7-0.9-2.7-0.9c0.2,0,0.5,0,0.7,0c0.7,0.1,1.4,0.3,2.1,0.5
			c2.5,0.9,4.8,2.2,6.8,3.9c2.9,2.6,5.2,5.8,6.9,9.3c2,4.3,3.4,8.9,4,13.6c1.2,8.6,0.2,17.3-2.7,25.4c-0.5,1.6-1.2,2.9-1.7,4.1
			c-0.4,1.2-1.1,2.2-1.5,3C110.9,553.2,110.4,554.1,109.8,554.9z"/>
		<polygon class="st6" points="74.6,552.7 124.7,552.7 125,562.8 74.6,562.8 		"/>
		<polygon class="st6" points="78.9,557.8 81.7,588.4 118.3,588.4 121.3,558.1 		"/>
		<path class="st4" d="M125,562.9c0,0.3-11.3,0.4-25.2,0.4s-25.2-0.2-25.2-0.4c0-0.3,11.3-0.4,25.2-0.4S125,562.6,125,562.9z"/>
		<path class="st4" d="M119.9,572.2c-0.3,0.7-0.6,1.3-1.1,1.9c-1.1,1.7-2.4,3.2-3.9,4.6l-0.2,0.2l-0.2-0.2c-3-3.2-6.3-6-9.8-8.6h0.6
			l-4.4,3.8l-5.1,4.5l-0.3,0.3l-0.3-0.2l-8.4-7l0.5-0.1c-1.7,2.1-3.2,3.9-4.3,5.3c-0.5,0.7-1.1,1.3-1.7,1.8c0.4-0.7,0.9-1.4,1.4-2.1
			l4.1-5.5l0.2-0.3l0.3,0.2l8.5,6.9h-0.6l5.1-4.5l4.4-3.8l0.3-0.2l0.3,0.2c3.5,2.6,6.8,5.6,9.7,8.9h-0.5
			C116.5,576.4,118.3,574.4,119.9,572.2z"/>
	</g>
	<g id="freepik--Device--inject-157">
		<path class="st5" d="M191.5,206h530c9.8,0,17.7,7.9,17.7,17.7v338.5c0,9.8-7.9,17.7-17.7,17.7h-530c-9.8,0-17.7-7.9-17.7-17.7
			V223.7C173.8,214,181.7,206,191.5,206z"/>
		<path class="st5" d="M155.3,555.8h612.6l0,0v11.1c0,12-9.7,21.6-21.6,21.6H176.9c-12,0-21.6-9.7-21.6-21.6L155.3,555.8
			L155.3,555.8z"/>
		<polygon class="st4" points="400.8,552.3 408.4,564.4 515.4,564.4 522.4,552.3 		"/>
		<path class="st4" d="M734.4,552.3c0,0.2-125.5,0.4-280.3,0.4s-280.3-0.2-280.3-0.4s125.5-0.4,280.3-0.4S734.4,552.1,734.4,552.3z"
			/>
		<path class="st2" d="M194,227.5h522.9c2.2,0,4,1.8,4,4v306.9c0,2.2-1.8,4-4,4H194c-2.2,0-4-1.8-4-4V231.5
			C190,229.3,191.8,227.5,194,227.5z"/>
		<polygon class="st8" points="720.3,542.9 189.4,542.9 190,251.1 720.3,251.1 		"/>
		<path class="st4" d="M233.5,239.7c0,2.3-1.9,4.3-4.2,4.3c-2.3,0-4.3-1.9-4.3-4.2c0-2.3,1.9-4.3,4.2-4.3c0,0,0,0,0,0
			C231.6,235.5,233.5,237.4,233.5,239.7z"/>
		<path class="st4" d="M207.8,239.7c0,2.3-1.9,4.3-4.2,4.3c-2.3,0-4.3-1.9-4.3-4.2c0-2.3,1.9-4.3,4.2-4.3c0,0,0,0,0.1,0
			C205.9,235.5,207.8,237.4,207.8,239.7z"/>
		<path class="st4" d="M220.2,239.7c0,2.3-1.9,4.2-4.2,4.2c-2.3,0-4.2-1.9-4.2-4.2s1.9-4.2,4.2-4.2
			C218.3,235.4,220.2,237.3,220.2,239.7C220.2,239.7,220.2,239.7,220.2,239.7z"/>
		<rect x="189.4" y="514.7" class="st4" width="531.4" height="28.2"/>
		<path class="st8" d="M209.5,532v0.9h-4.2v-0.7l2.3-2.2c0.6-0.5,0.7-0.9,0.7-1.2c0-0.5-0.4-0.8-1.1-0.8c-0.5,0-1,0.2-1.3,0.6
			l-0.8-0.6c0.5-0.6,1.4-1,2.2-0.9c1.2,0,2.1,0.6,2.1,1.6c0,0.7-0.4,1.4-1,1.8l-1.5,1.5L209.5,532z"/>
		<path class="st8" d="M210.1,529.2c0-0.4,0.3-0.7,0.7-0.7c0.4,0,0.7,0.3,0.7,0.7c0,0.4-0.3,0.7-0.7,0.7c0,0,0,0,0,0
			C210.4,529.9,210.1,529.6,210.1,529.2C210.1,529.2,210.1,529.2,210.1,529.2z M210.1,532.3c-0.1-0.4,0.2-0.7,0.6-0.8
			c0.4-0.1,0.7,0.2,0.8,0.6c0,0.1,0,0.1,0,0.2c0.1,0.4-0.2,0.7-0.6,0.8c-0.4,0.1-0.7-0.2-0.8-0.6
			C210.1,532.4,210.1,532.4,210.1,532.3z"/>
		<path class="st8" d="M214.1,527.2v5.7H213v-4.9h-1.2v-0.9L214.1,527.2z"/>
		<path class="st8" d="M220.3,531.6h-1v1.3h-1v-1.3h-3.1v-0.7l2.8-3.6h1.1l-2.7,3.5h1.9v-1.2h1v1.2h1L220.3,531.6z"/>
		<rect x="229.7" y="529.3" class="st8" width="435.6" height="2"/>
		<rect x="229.4" y="527.2" class="st6" width="136.1" height="5.3"/>
		<path class="st6" d="M369.9,530.3c0,3.7-3,6.6-6.6,6.6s-6.6-3-6.6-6.6s3-6.6,6.6-6.6S369.9,526.7,369.9,530.3L369.9,530.3z"/>
		<path class="st8" d="M676.3,530.3c0,1.1-0.9,1.9-1.9,1.9c-0.1,0-0.1,0-0.2,0c-1.6,0-2.4-1-2.4-2.9c-0.2-1.5,0.9-2.9,2.4-3
			c0.1,0,0.3,0,0.4,0c0.5,0,1,0.1,1.5,0.4l-0.4,0.8c-0.3-0.2-0.7-0.3-1.1-0.3c-1.1,0-1.8,0.7-1.8,2l0,0c0.4-0.4,1-0.6,1.5-0.6
			C675.4,528.5,676.2,529.2,676.3,530.3C676.3,530.2,676.3,530.2,676.3,530.3z M675.2,530.3c0-0.6-0.4-1-1.1-1
			c-0.6-0.1-1.1,0.3-1.2,0.9c0,0,0,0.1,0,0.1c0,0.5,0.4,1,1.2,1c0.5,0.1,1-0.3,1.1-0.8C675.2,530.4,675.2,530.4,675.2,530.3
			L675.2,530.3z"/>
		<path class="st8" d="M676.8,528.3c-0.1-0.4,0.2-0.7,0.6-0.8s0.7,0.2,0.8,0.6c0,0.1,0,0.1,0,0.2c0.1,0.4-0.2,0.7-0.6,0.8
			c-0.4,0.1-0.7-0.2-0.8-0.6C676.8,528.4,676.8,528.4,676.8,528.3z M676.8,531.4c-0.1-0.4,0.2-0.7,0.6-0.8s0.7,0.2,0.8,0.6
			c0,0.1,0,0.1,0,0.2c0.1,0.4-0.2,0.7-0.6,0.8c-0.4,0.1-0.7-0.2-0.8-0.6C676.8,531.6,676.8,531.5,676.8,531.4z"/>
		<path class="st8" d="M678.8,529.2c0-1.9,1-3,2.4-3s2.4,1.1,2.4,3s-1,3-2.4,3S678.8,531.1,678.8,529.2z M682.5,529.2
			c0-1.4-0.5-2-1.3-2s-1.3,0.6-1.3,2c0,1.4,0.5,2,1.3,2S682.5,530.6,682.5,529.2z"/>
		<path class="st8" d="M684.3,529.2c0-1.9,1-3,2.4-3s2.4,1.1,2.4,3s-1,3-2.4,3S684.3,531.1,684.3,529.2z M688.1,529.2
			c0-1.4-0.5-2-1.3-2s-1.3,0.6-1.3,2c0,1.4,0.5,2,1.3,2S688.1,530.6,688.1,529.2z"/>
		<polygon class="st8" points="698.4,528.8 696.4,528.8 696.4,523.1 702.1,523.1 702.1,525.1 698.4,525.1 		"/>
		<polygon class="st8" points="702.1,536.3 696.4,536.3 696.4,530.6 698.4,530.6 698.4,534.3 702.1,534.3 		"/>
		<polygon class="st8" points="711.3,536.3 705.6,536.3 705.6,534.3 709.3,534.3 709.3,530.6 711.3,530.6 		"/>
		<polygon class="st8" points="711.3,528.8 709.3,528.8 709.3,525.1 705.5,525.1 705.5,523.1 711.3,523.1 		"/>
		<polygon class="st2" points="262.2,268.4 230.9,268.4 215.3,295.5 230.9,322.6 262.2,322.6 277.9,295.5 		"/>
		<path class="st4" d="M233.5,300.8c-1.5-1.5-2.7-3.2-3.8-4.9c-1.1-1.8-1.5-3.9-1.3-6c0.3-1.2,0.6-2.4,0.8-3.6c0.1-1.7-0.6-3.4,0-5
			c0.9-2.4,4.2-2.8,6.2-4.5c1.6-1.3,2.3-3.5,4-4.6c1.6-0.8,3.4-1.1,5.2-0.7c1.7,0.4,3.5,0.6,5.3,0.5c1.2-0.3,2.4-0.6,3.6-1
			c1.2-0.4,2.5-0.3,3.6,0.3c1.2,0.6,1.6,2.1,1,3.2c2.1-0.9,4.7,0.7,5.2,2.8c0.4,2.3-0.5,4.6-2.3,6c-1.8,1.4-4,2.2-6.2,2.5
			c-6.3,1.2-13.1,0.5-18.5-2.9"/>
		<path class="st9" d="M262.5,307.5c-0.2-3.9-1.3-11.8-2.4-19c-1.1-7.7-8-13.3-15.8-12.8h-0.8c-8.3,1-12.1,8.7-10.8,17l2.4,29.9
			h20.3c0,0-0.5-5.2-0.5-5.3S262.9,315.5,262.5,307.5z"/>
		<path class="st10" d="M255,317.2c-3.7,0.3-7.4-0.5-10.7-2.3c0,0,2.9,5.6,10.8,4.4L255,317.2z"/>
		<path class="st4" d="M257.5,295.4c0,0.6-0.4,1.2-1,1.2c-0.6,0.1-1.1-0.3-1.2-0.9c0,0,0,0,0,0c0-0.6,0.4-1.2,1-1.2
			C256.9,294.3,257.5,294.8,257.5,295.4C257.5,295.4,257.5,295.4,257.5,295.4z"/>
		<path class="st4" d="M258.7,292.5c-0.1,0.2-1-0.4-2.3-0.3c-1.2,0.1-2.1,0.8-2.2,0.6c-0.1-0.1,0-0.3,0.4-0.7
			c0.5-0.4,1.1-0.6,1.8-0.7c0.6,0,1.3,0.1,1.8,0.5C258.6,292.2,258.7,292.4,258.7,292.5z"/>
		<path class="st4" d="M245.9,296.2c0,0.6-0.4,1.1-1,1.2c-0.6,0.1-1.1-0.4-1.2-1c0-0.6,0.4-1.1,1-1.2
			C245.3,295.2,245.8,295.6,245.9,296.2z"/>
		<path class="st4" d="M246.6,293.6c-0.1,0.2-1-0.4-2.3-0.3c-1.2,0.1-2.1,0.8-2.2,0.6c-0.1-0.1,0-0.3,0.4-0.7c1-0.8,2.5-0.9,3.6-0.2
			C246.5,293.2,246.6,293.5,246.6,293.6z"/>
		<path class="st4" d="M251.6,302.4c0.6-0.2,1.3-0.4,2-0.5c0.3,0,0.6-0.1,0.6-0.4c0-0.3-0.1-0.6-0.3-0.9l-1.1-2.3
			c-1-2-1.8-4-2.5-6.1c1.2,1.9,2.2,3.9,3,5.9c0.4,0.8,0.7,1.6,1.1,2.3c0.2,0.4,0.3,0.8,0.2,1.2c-0.1,0.2-0.3,0.4-0.5,0.5
			c-0.2,0.1-0.4,0.1-0.5,0.1C253,302.4,252.3,302.4,251.6,302.4z"/>
		<path class="st4" d="M246.6,288.7c-0.1,0.3-1.3,0.3-2.8,0.5c-1.4,0.3-2.6,0.7-2.8,0.4s0.1-0.5,0.5-0.8c0.6-0.4,1.3-0.7,2-0.9
			c0.7-0.1,1.5-0.1,2.2,0.1C246.3,288.3,246.6,288.5,246.6,288.7z"/>
		<path class="st4" d="M258,289c-0.2,0.3-1.1,0.1-2.1,0.1c-1,0-1.9,0.3-2.1,0s0-0.4,0.4-0.7c0.5-0.4,1.1-0.6,1.7-0.6
			c0.6,0,1.2,0.1,1.7,0.4C257.9,288.6,258.1,288.8,258,289z"/>
		<path class="st9" d="M233.8,298.7c-0.1,0-5.6-1.2-5.1,4.2c0.5,5.4,6.5,3.6,6.5,3.5C235.2,306.3,233.8,298.7,233.8,298.7z"/>
		<path class="st10" d="M232.7,304.6c0,0-0.1,0.1-0.2,0.2c-0.2,0.1-0.5,0.2-0.7,0.1c-0.8-0.4-1.3-1.2-1.3-2c-0.1-0.5,0-0.9,0.1-1.4
			c0.1-0.4,0.3-0.7,0.6-0.8c0.2-0.1,0.5,0,0.6,0.2c0.1,0.1,0.1,0.3,0.1,0.3s0.1-0.1,0-0.3c0-0.1-0.1-0.2-0.2-0.3
			c-0.2-0.1-0.4-0.1-0.5-0.1c-0.4,0.1-0.8,0.5-0.9,0.9c-0.2,0.5-0.2,1-0.2,1.6c0,1,0.7,1.9,1.6,2.2c0.3,0.1,0.6,0,0.9-0.2
			C232.8,304.8,232.8,304.6,232.7,304.6z"/>
		<path class="st4" d="M259.7,281c-0.4,2.2-4.8,4.2-8.5,4.1c-3.4-0.1-5.1-1.8-7.5-3c-1.6-0.8-1.6-0.8-3.6-0.4
			c-1.7,0.3-2.6,2.3-3.5,3.7c1.8,4,1.1,8.6,0.3,12.9c0,0.5-0.2,0.9-0.5,1.3c-0.7,0.4-1.7,0.3-2.2-0.3c-0.9-1-1.5-2.2-1.7-3.5
			c-0.8-2.9-0.9-5.9-0.5-8.9c0.4-3,1.7-5.8,3.6-8c2.6-2.7,6.2-4.4,10-4.5c3.8-0.1,7.5,0.9,10.6,3C257.5,278.2,258.8,279.5,259.7,281
			"/>
		<path class="st10" d="M252.5,305.2l-2.8-1.3c-0.2-0.1-0.3-0.1-0.5-0.1c-0.2,0-0.4,0.2-0.5,0.3c-0.7,0.8-0.8,1.9-0.3,2.8
			c0.5,0.9,1.6,1.3,2.6,1C251.9,307.4,252.5,306.4,252.5,305.2L252.5,305.2z"/>
		<path class="st4" d="M251,308.1c0,0-0.6,0.4-1.6,0.1c-0.6-0.2-1.1-0.6-1.4-1.2c-0.4-0.7-0.5-1.5-0.2-2.3c0.1-0.4,0.4-0.7,0.7-1
			c0.1-0.1,0.3-0.3,0.5-0.4c0.2-0.1,0.5-0.1,0.7,0c0.6,0.4,1.1,0.7,1.5,0.9c0.8,0.5,1.3,0.9,1.2,1c-0.1,0.1-0.6-0.2-1.5-0.6
			l-1.5-0.8c-0.1,0-0.1,0-0.2,0c-0.1,0.1-0.2,0.2-0.3,0.3c-0.2,0.2-0.4,0.5-0.5,0.8c-0.2,0.6-0.2,1.2,0.1,1.8c0.2,0.5,0.6,0.8,1.1,1
			C250.4,308.2,251,308,251,308.1z"/>
		<path class="st4" d="M250.2,295.5c0,0,0-0.5-0.3-1.4c-0.4-1.2-1.1-2.3-2.1-3c-2.4-1.8-5.8-1.3-7.6,1.1c-1.8,2.4-1.3,5.8,1.1,7.6
			c1.9,1.4,4.6,1.4,6.5,0c1-0.7,1.8-1.8,2.1-3C250.1,296,250.1,295.5,250.2,295.5c0.1,0,0,0.1,0,0.4c0,0.4,0,0.7-0.1,1.1
			c-0.3,1.3-1,2.5-2.1,3.3c-1.6,1.2-3.7,1.6-5.6,0.9c-3.1-1.1-4.7-4.5-3.6-7.7c0.6-1.7,1.9-3,3.6-3.6c1.9-0.7,4-0.3,5.6,0.9
			c1.1,0.8,1.8,2,2.1,3.3c0.1,0.3,0.1,0.7,0.1,1.1C250.2,295.4,250.2,295.5,250.2,295.5z"/>
		<path class="st4" d="M263.8,295c-0.1,0,0-0.5-0.3-1.3c-0.3-1.2-1.1-2.2-2-2.9c-2.4-1.7-5.7-1.3-7.4,1.1c-1.7,2.4-1.3,5.7,1.1,7.4
			c1.9,1.4,4.4,1.4,6.3,0c1-0.7,1.7-1.7,2-2.9C263.8,295.5,263.8,295,263.8,295c0.1,0,0,0.1,0,0.4c0,0.3,0,0.7-0.1,1
			c-0.3,1.3-1,2.4-2,3.2c-1.6,1.2-3.6,1.6-5.5,0.9c-3-1.1-4.6-4.4-3.5-7.5c0.6-1.7,1.9-3,3.5-3.5c1.9-0.7,3.9-0.3,5.5,0.9
			c1,0.8,1.7,1.9,2,3.2c0.1,0.3,0.1,0.7,0.1,1C263.9,294.8,263.9,295,263.8,295z"/>
		<path class="st4" d="M252.7,293.7c-0.1,0.1-0.7-0.2-1.4-0.2c-0.7,0-1.2,0.4-1.4,0.3s0.3-0.9,1.4-0.9S252.9,293.6,252.7,293.7z"/>
		<path class="st4" d="M239.1,294.7c0.1,0.1-1,1.1-2.4,2.2c-0.8,0.7-1.7,1.3-2.7,1.7c-0.1-0.1,1-1.1,2.4-2.2
			C237.1,295.6,238.1,295.1,239.1,294.7z"/>
		<path class="st4" d="M352,295.2c0,0.2-14.1,0.3-31.4,0.3c-17.4,0-31.4-0.1-31.4-0.3s14.1-0.3,31.4-0.3
			C337.9,294.9,352,295.1,352,295.2z"/>
		<path class="st4" d="M322.9,301.8c0,0.2-7.5,0.3-16.7,0.3c-9.2,0-16.7-0.1-16.7-0.3s7.5-0.3,16.7-0.3
			C315.4,301.5,322.9,301.6,322.9,301.8z"/>
	</g>
	<g id="freepik--Character--inject-157">
		<path class="st6" d="M540.2,343.8c11.1,6.3,19.2,16.8,22.6,29.2c5.9,21,23.8,75.7,23.8,75.7s10.3,12.1,11.4,21s-1.1,30.6-4.4,34.6
			c-1.9,2.4-4.9,3.6-8,3.4l-43.2-4.1l-17-113.9L540.2,343.8z"/>
		<path class="st6" d="M397.3,341.8c0,0-30.9,9.7-38.6,18.1L384,477.6l-0.4,37.1h146.5c0-1.8,1.3-123.3,1.3-123.3l8.8-47.7l-52-9.2
			l-10.3-8.1l-57.9,2.9l-8.8,8.8L397.3,341.8z"/>
		<g class="st7">
			<path d="M409.1,443.9c-0.4-1-1.1-2.1-2.2-2.3c-1.8-0.4-2.9,1.7-3.5,3.4c-4.7,13.3-11.1,26-19.2,37.6l-0.4,18.1
				c8.5-7.2,16.9-14.9,22.4-24.6C411.6,466.3,413.7,454.1,409.1,443.9z"/>
		</g>
		<path class="st6" d="M358.7,359.9c0,0-10.2,13.9-14.4,22.9c-4.2,9.1-39.2,85.1-41.3,93c-2.1,7.9-7.5,32.6,8.5,38.3h32.9l33-66.8
			l1.7-77.5L358.7,359.9z"/>
		<path class="st4" d="M346.4,465.9c0,0-0.7-0.6-2.2-1.5c-2.2-1.2-4.5-2-6.9-2.5c-1.7-0.4-3.3-0.6-5-0.7c-2-0.1-3.9,0-5.8,0.4
			c-4.3,1.1-8.2,3.5-11.1,7c-2.9,3.4-5.1,7.4-6.3,11.7c-1,3.5-1.7,7.1-2,10.8c-0.3,3.1-0.4,5.7-0.5,7.4c0,0.8-0.1,1.5-0.1,2
			c0,0.2,0,0.5-0.1,0.7c0-0.2,0-0.5,0-0.7c0-0.5,0-1.2,0-2c0-1.8,0.1-4.3,0.3-7.4c0.3-3.7,0.9-7.4,1.9-10.9
			c1.2-4.4,3.4-8.5,6.4-11.9c3-3.5,7-6,11.4-7.1c2-0.4,4-0.5,5.9-0.3c1.7,0.1,3.4,0.4,5.1,0.8c2.4,0.5,4.8,1.5,6.9,2.7
			c0.6,0.4,1.1,0.8,1.6,1.2C346.1,465.6,346.3,465.8,346.4,465.9z"/>
		<path class="st4" d="M330.8,452.6c0.4-0.1,0.7-0.2,1.1-0.2c1-0.1,2-0.1,3.1,0c1.5,0.1,3,0.3,4.5,0.7c3.6,0.9,7,2.5,10,4.8
			c1.2,0.9,2.3,1.9,3.3,3.1c0.7,0.8,1.3,1.6,1.9,2.4c0.2,0.3,0.4,0.6,0.6,1c-0.1,0.1-1-1.2-2.8-3.1c-1-1.1-2.2-2-3.4-2.9
			c-1.5-1.1-3-2-4.7-2.8c-1.6-0.8-3.4-1.4-5.1-1.9c-1.4-0.4-2.9-0.6-4.4-0.8C332.4,452.6,330.8,452.8,330.8,452.6z"/>
		<path class="st4" d="M360.6,449c-0.5,0-1,0-1.5-0.1c-1-0.1-2.4-0.3-4.1-0.4c-9.1-0.7-18.2,0.4-26.9,3.2c-1.7,0.5-3,1-3.9,1.4
			c-0.5,0.2-1,0.4-1.4,0.5c0.4-0.3,0.9-0.5,1.3-0.7c0.9-0.4,2.2-1,3.9-1.6c8.7-3.1,17.9-4.2,27.1-3.2c1.7,0.2,3.1,0.4,4.1,0.6
			C359.6,448.7,360.1,448.8,360.6,449z"/>
		<path class="st4" d="M454.3,384c-0.1-0.1-0.2-0.3-0.3-0.4l-0.9-1.2l-3.3-4.6c-2.8-4-6.8-9.6-11.5-16.2l0.5-0.1
			c-1.8,5.2-3.7,10.9-5.8,17l-0.1,0.4l-0.3-0.2l-0.7-0.4c-2.6-1.7-5.1-3.7-7.2-6.1c-1.9-2.2-3.7-4.5-5.1-7.1
			c-2.4-4.3-4.3-8.8-5.6-13.6c-0.9-3.2-1.6-6.4-2.1-9.7c-0.2-1.1-0.3-2-0.5-2.7c0-0.2-0.1-0.5-0.2-0.7c0-0.1-0.1-0.2-0.1-0.2
			c0,0,0.5,1.2,0.9,3.5c0.4,2.3,1.1,5.6,2.3,9.6c1.3,4.7,3.3,9.2,5.7,13.4c1.5,2.5,3.2,4.8,5.1,7c2.1,2.3,4.4,4.3,7,5.9l0.7,0.4
			l-0.5,0.2c2.1-6.1,4-11.8,5.8-17l0.2-0.5l0.3,0.5c4.6,6.6,8.5,12.3,11.3,16.3c1.3,2,2.4,3.5,3.2,4.7l0.8,1.2
			C454.2,383.6,454.2,383.8,454.3,384z"/>
		<g class="st7">
			<path d="M492.4,440.2c-1.3,13.7,1.7,27.5,8.5,39.5c6.8,11.8,16.8,22.4,29.2,28.1c0.4-12.1-0.2-26.3,0.2-38.4L492.4,440.2z"/>
		</g>
		<path class="st9" d="M491.1,424.3c0,0-5.3,1.5-1.3,12.4c4,10.9,5.3,10.2,8,20.4c2.7,10.2,5.8,19.5,10.4,25.3
			c4.6,5.8,21.9,17.5,21.9,17.5l15.5-14.6c0,0-2.6-10.9-1.9-18.3c0.6-7.4,2.2-25.5,1.9-28.7c-0.2-3.1-3.6-10.6-3.6-10.6v-5.2
			l-8-24.5c0,0-4.4-2-6,5.1l-2.7-7.5c0,0-4.2-0.7-5.3,8c-1.1,8.6,0.9,20.6,0.9,20.6l-2.2,15.1l-3.3,10.2l-2.9,0.4
			c0,0-4.3-1.2-6.7-9.4C503.5,432.3,497.1,422.5,491.1,424.3z"/>
		<path class="st10" d="M540.4,462.9c0,0,0-0.2-0.1-0.5c-0.1-0.4-0.1-1-0.1-1.6c-0.1-1.5-0.2-3.5-0.3-6.1c-0.2-5.3-0.6-12.7-1-21.3
			l0.1,0.2c-0.8-0.8-2-1.2-3.1-0.8c-1.2,0.3-2.2,1.1-2.9,2.1c-1.4,2.2-1.4,5-1.9,7.8c-0.8,6.2-1.6,12.2-2.4,17.5
			c-0.4,2.7-0.8,5.3-1.3,7.6c-0.5,2.2-1.1,4.4-1.9,6.5c-0.7,1.9-1.3,3.6-1.7,5.3c-0.3,1.3-0.5,2.7-0.5,4.1c0,1.2,0.2,2.4,0.6,3.5
			c-0.1-0.3-0.3-0.6-0.4-0.9c-0.3-0.8-0.5-1.7-0.5-2.6c-0.1-1.4,0.1-2.8,0.4-4.2c0.4-1.8,1-3.6,1.6-5.3c0.8-2.1,1.4-4.2,1.8-6.4
			c0.5-2.3,0.9-4.9,1.2-7.6c0.7-5.4,1.5-11.3,2.3-17.5c0.2-1.4,0.3-2.7,0.6-4.1c0.2-1.4,0.7-2.7,1.4-3.9c0.7-1.2,1.9-2,3.3-2.4
			c1.3-0.4,2.8,0,3.7,1l0.1,0.1v0.1c0.3,8.6,0.6,16,0.7,21.3c0,2.6,0.1,4.6,0.2,6.1c0,0.7,0,1.2,0,1.6
			C540.5,462.5,540.5,462.7,540.4,462.9z"/>
		<path class="st10" d="M531.9,434.9c-0.3-0.4-0.5-0.9-0.7-1.4c-0.5-1.3-0.9-2.6-1.3-4c-0.5-2-0.9-4-1.1-6.1
			c-0.2-1.2-0.2-2.4-0.1-3.6c0.1-1.4,0.6-2.7,1.3-3.8c0.7-1,1.7-1.8,2.8-2.1l0.2-0.1l0.1,0.2c2.2,4,4.2,7.5,5.6,10l1.6,3
			c0.2,0.3,0.4,0.7,0.5,1.1c-0.3-0.3-0.5-0.6-0.7-1l-1.8-2.9c-1.5-2.4-3.5-5.9-5.8-9.9l0.4,0.1c-1,0.3-1.9,1-2.5,1.9
			c-0.7,1-1.1,2.2-1.2,3.5c-0.1,1.2-0.1,2.4,0,3.6c0.2,2,0.5,4.1,1,6.1c0.4,1.7,0.8,3.1,1.1,4C531.7,434,531.8,434.4,531.9,434.9z"
			/>
		<path class="st10" d="M528.2,436.9c-0.1-0.5-0.2-0.9-0.1-1.4c0-1-0.1-2.3-0.2-3.9c-0.1-3.3-0.2-7.8-0.3-12.7
			c-0.2-4.3-0.1-8.5,0.2-12.8c0.2-1.3,0.4-2.6,0.8-3.8c0.1-0.5,0.3-0.9,0.6-1.3c-0.4,1.7-0.8,3.4-1,5.2c-0.3,3.2,0,7.7,0,12.7
			s0.1,9.5,0.1,12.7c0,1.5,0,2.8,0,3.9C528.4,435.9,528.3,436.4,528.2,436.9z"/>
		<path class="st10" d="M515.1,477.8c-0.1-0.1,0.9-1.2,2.1-3.3c0.7-1.2,1.3-2.5,1.8-3.8c0.6-1.6,1.1-3.3,1.4-4.9
			c0.3-1.7,0.4-3.4,0.4-5.1c0-1.4-0.1-2.8-0.4-4.2c-0.4-2.4-0.9-3.8-0.8-3.8c0.2,0.3,0.3,0.6,0.4,1c0.3,0.9,0.6,1.8,0.8,2.8
			c0.3,1.4,0.5,2.8,0.5,4.2c0.1,3.5-0.5,7-1.9,10.3c-0.5,1.3-1.2,2.6-2,3.8c-0.5,0.8-1.1,1.6-1.7,2.3
			C515.4,477.5,515.1,477.8,515.1,477.8z"/>
		<path class="st9" d="M542.3,470.2l13.5,4.7c0,0,12.9-6.7,21.7,0c8.9,6.7,16.6,24.2,14.1,31.3c0,0-6.1,7.6-10.8,8.7
			c-4.7,1.1-22.7-3.3-30.3-4.9c-7.5-1.6-20.5-10-20.5-10L542.3,470.2z"/>
		<path class="st10" d="M544,490c-0.1-0.4-0.1-0.8-0.1-1.2c0-0.9-0.1-2-0.2-3.3c-0.1-2.7-0.3-6.5-0.4-10.7c-0.1-4.2,0.1-8,0.3-10.8
			c0.1-1.4,0.3-2.4,0.4-3.2c0-0.4,0.1-0.8,0.3-1.2c0.1,0-0.1,1.7-0.2,4.5c-0.1,2.7-0.2,6.5-0.1,10.7s0.1,7.8,0.2,10.7
			c0,1.4,0,2.5,0,3.3C544.1,489.1,544.1,489.5,544,490z"/>
		<path class="st4" d="M588.4,474.3c-1.4-1.4-2.9-2.8-4.5-4c-8-6-18.7-6.5-27.3-1.5c-1.7,1.1-3.3,2.2-4.9,3.5
			c0.3-0.4,0.7-0.9,1.1-1.2c1.1-1,2.3-1.9,3.6-2.7c8.7-5.4,19.8-4.8,27.8,1.5c1.2,0.9,2.3,1.9,3.2,3.1
			C587.8,473.3,588.1,473.8,588.4,474.3z"/>
		<path class="st4" d="M586.6,463c-1.7-1.2-3.6-2.3-5.6-3.1c-4.9-1.7-10.2-1.9-15.2-0.4c-2.7,0.8-5.4,1.9-7.8,3.3
			c-2,1.2-3.9,2.5-5.7,4c-1.5,1.3-2.7,2.4-3.5,3.2c-0.4,0.4-0.8,0.9-1.3,1.2c0.3-0.5,0.7-0.9,1.1-1.4c1.1-1.2,2.2-2.3,3.3-3.4
			c1.7-1.6,3.6-3,5.7-4.2c2.5-1.5,5.2-2.6,8-3.4c5.1-1.5,10.5-1.3,15.5,0.6c1.5,0.6,2.9,1.4,4.1,2.3c0.4,0.3,0.8,0.6,1,0.8
			C586.6,462.9,586.6,463,586.6,463z"/>
		<path class="st4" d="M586.7,453.3c0,0.1-2.4-0.6-6.3-1.1c-2.3-0.3-4.6-0.5-6.9-0.4c-2.8,0-5.6,0.3-8.4,0.8
			c-2.8,0.5-5.5,1.2-8.2,2.2c-2.2,0.8-4.3,1.7-6.3,2.8c-3.5,1.8-5.5,3.3-5.5,3.2c0.4-0.4,0.9-0.8,1.3-1.1c0.5-0.4,1.1-0.8,1.7-1.1
			c0.7-0.4,1.4-0.9,2.3-1.4c2-1.1,4.2-2.1,6.4-2.9c2.7-1,5.5-1.7,8.3-2.2c2.8-0.5,5.7-0.7,8.5-0.7c2.3,0,4.7,0.2,7,0.6
			c1,0.1,1.9,0.4,2.6,0.5c0.7,0.1,1.3,0.3,2,0.5C585.7,452.9,586.2,453.1,586.7,453.3z"/>
		<path class="st4" d="M483.6,334.3c0.5,1.1,0.8,2.3,0.9,3.6c0.4,3.5,0.2,7-0.5,10.4c-0.4,2.5-1,4.9-1.7,7.3c-1,2.8-2.1,5.5-3.5,8.1
			c-2.9,5.6-6.6,11.7-10.8,18.2l-0.5,0.8v-0.9c0-4.3,0-8.8,0-13.5l0.5,0.2l-11.4,9.1l0.1-0.1c-2.7,8.9-4.4,18-5,27.3
			c-1.1,14.8-0.2,29,0.5,41.8c0.7,12.8,1,24.4,1.4,34.2c0.4,9.7,0.7,17.6,1,23c0.2,2.7,0.3,4.8,0.4,6.2c0,0.7,0.1,1.2,0.1,1.6
			c0,0.4,0,0.6,0,0.6s0-0.2-0.1-0.5c-0.1-0.4-0.1-0.9-0.2-1.6c-0.1-1.4-0.3-3.5-0.5-6.2c-0.4-5.4-0.8-13.3-1.2-23
			c-0.4-9.7-0.9-21.3-1.5-34.1s-1.6-27-0.5-41.9c0.6-9.3,2.3-18.5,5.1-27.4v-0.1h0.1l11.4-9.1l0.5-0.4v0.6c0,4.7,0,9.2,0,13.5
			l-0.5-0.2c8.4-12.9,15.2-24.2,16.2-33.3c0.7-3.4,0.9-6.9,0.7-10.4c-0.1-0.9-0.3-1.8-0.5-2.7C483.7,334.6,483.6,334.3,483.6,334.3z
			"/>
		<path class="st8" d="M461.8,491.1h-0.4c-1.9,0.1-3.3,1.7-3.2,3.6c0.1,1.9,1.7,3.3,3.6,3.2s3.3-1.7,3.2-3.6
			C464.9,492.6,463.6,491.2,461.8,491.1L461.8,491.1z"/>
		<path class="st8" d="M461.8,444.2h-0.4c-1.9,0.1-3.3,1.7-3.2,3.6c0.1,1.9,1.7,3.3,3.6,3.2c1.9-0.1,3.3-1.7,3.2-3.6
			C464.9,445.7,463.5,444.3,461.8,444.2L461.8,444.2z"/>
		<path class="st8" d="M461.4,402.3c1.9,0.1,3.5-1.3,3.6-3.2s-1.3-3.5-3.2-3.6h-0.4c-1.9,0-3.4,1.5-3.4,3.4
			C458,400.8,459.5,402.3,461.4,402.3L461.4,402.3z"/>
		<path class="st4" d="M408.8,279.3c-4.3-4.7-8.5-9.5-11.7-15c-3.1-5.5-5-12-3.9-18.2c0.6-3.6,2.2-7.2,2.4-10.9
			c0.3-5.1-1.8-10.4,0-15.2c2.8-7.5,12.9-8.6,19-13.8c4.8-4,7.1-10.6,12.3-13.9c4.6-3,10.4-2.9,15.8-2.1c5.4,0.8,10.8,2.1,16.2,1.4
			c3.8-0.5,7.5-2.1,11.2-3c3.8-0.9,8-1.2,11.3,0.8c3.3,2,5.2,6.7,3,9.9c6.2-2.9,14.2,2,15.9,8.7c1.7,6.7-1.7,13.9-7,18.2
			c-5.3,4.4-12.2,6.4-18.9,7.7c-19.1,3.6-39.9,1.6-56.4-8.8"/>
		<path class="st9" d="M476.2,343.7c-0.9-7.3-1.7-13.3-1.8-14c0,0,24.2-5.4,22.9-29.9c-0.6-11.8-4-36.1-7.2-58
			c-3.5-23.6-24.5-40.5-48.2-38.9l-2.4,0.1c-25.4,3.2-36.8,26.5-32.9,51.8l13.7,84.7c0,0,5.8,18.7,18.3,22l15.8,22.5l2.6-9.7
			l11.7-10.2c2.3-2.6,4.2-5.5,5.8-8.6C476.2,351.7,476.8,347.7,476.2,343.7z"/>
		<path class="st10" d="M474.4,329.3c0,0-15.4,2.3-32.5-6.9c0,0,8.7,17.1,33,13.3L474.4,329.3z"/>
		<path class="st4" d="M482.2,262.7c0.1,1.9-1.2,3.6-3.1,3.8c-1.8,0.3-3.5-1-3.8-2.8c0,0,0-0.1,0-0.1c-0.2-1.9,1.2-3.6,3.1-3.8
			c1.8-0.3,3.5,1,3.8,2.8C482.2,262.7,482.2,262.7,482.2,262.7z"/>
		<path class="st4" d="M485.6,254.1c-0.4,0.5-3.2-1.3-6.9-1c-3.8,0.3-6.3,2.3-6.8,1.9c-0.2-0.2,0.2-1,1.3-2c1.5-1.2,3.4-2,5.4-2.1
			c2-0.1,3.9,0.3,5.6,1.4C485.4,253,485.8,253.8,485.6,254.1z"/>
		<path class="st4" d="M446.7,265.3c0.1,1.9-1.2,3.6-3.1,3.7c-1.8,0.3-3.5-1-3.8-2.8c0,0,0-0.1,0-0.1c-0.1-1.9,1.2-3.6,3.1-3.8
			C444.7,262.1,446.4,263.4,446.7,265.3C446.7,265.2,446.7,265.3,446.7,265.3z"/>
		<path class="st4" d="M448.7,257.2c-0.4,0.5-3.2-1.3-6.9-1c-3.8,0.3-6.4,2.3-6.8,1.9c-0.2-0.2,0.2-1,1.3-2c1.6-1.2,3.5-2,5.4-2.1
			c2-0.1,3.9,0.3,5.6,1.4C448.5,256.2,448.9,257,448.7,257.2z"/>
		<path class="st4" d="M464.2,284.2c0-0.2,2.3-0.8,6.1-1.5c0.9-0.2,1.8-0.4,2-1.1c0-1-0.3-2-0.8-2.8l-3.3-7.1
			c-4.6-10.1-8.1-18.5-7.6-18.7c0.4-0.2,4.5,7.9,9.1,18l3.2,7.2c0.7,1.1,0.9,2.4,0.8,3.7c-0.2,0.7-0.8,1.3-1.5,1.5
			c-0.5,0.2-1.1,0.3-1.6,0.3C466.6,284.3,464.3,284.4,464.2,284.2z"/>
		<path class="st4" d="M448.7,242.4c-0.3,1.1-4.1,0.8-8.5,1.6c-4.4,0.8-7.9,2.3-8.5,1.4c-0.3-0.4,0.3-1.4,1.6-2.5
			c3.7-2.7,8.5-3.6,12.9-2.3C448,241.2,448.8,241.9,448.7,242.4z"/>
		<path class="st4" d="M483.5,243.3c-0.6,0.9-3.2,0.2-6.4,0.4s-5.7,1-6.4,0.1c-0.3-0.4,0.1-1.3,1.2-2.2c3-2.2,7.1-2.3,10.3-0.4
			C483.4,242,483.8,242.8,483.5,243.3z"/>
		<path class="st9" d="M409.7,272.8c-0.4-0.1-17.1-3.8-15.5,12.9c1.7,16.7,19.7,11.2,19.7,10.8C414,295.9,409.7,272.8,409.7,272.8z"
			/>
		<path class="st10" d="M406.6,290.9c-0.1,0-0.3,0.2-0.7,0.5c-0.7,0.4-1.4,0.5-2.2,0.3c-1.8-0.5-3.6-3.1-4-6.1
			c-0.2-1.4,0-2.9,0.4-4.2c0.2-1.1,1-2,2-2.4c0.7-0.2,1.4,0,1.8,0.6c0.3,0.4,0.2,0.8,0.3,0.8c0.1,0,0.3-0.3,0.1-1
			c-0.1-0.4-0.4-0.8-0.8-1c-0.5-0.3-1.1-0.5-1.7-0.3c-1.4,0.4-2.4,1.5-2.8,2.9c-0.6,1.5-0.8,3.1-0.5,4.8c0.4,3.4,2.4,6.3,4.9,6.8
			c0.9,0.2,1.9-0.1,2.6-0.7C406.6,291.3,406.7,290.9,406.6,290.9z"/>
		<path class="st4" d="M488.9,218.9c-1.1,6.7-14.6,12.7-25.8,12.4c-10.3-0.3-15.4-5.4-22.9-9c-4.7-2.3-4.7-2.3-11.2-1.2
			c-5.2,0.8-7.9,7-10.8,11.4c5.6,12.2,3.3,26.2,0.9,39.3c-0.1,1.5-0.7,2.9-1.7,4c-1.9,1.7-4.9,0.7-6.8-1c-3-2.7-4.3-6.7-5.3-10.6
			c-2.4-8.8-2.9-18.1-1.7-27.2c1.3-9.1,5.2-17.7,11.3-24.6c8-8.4,18.9-13.3,30.4-13.8c11.5-0.4,22.8,2.8,32.4,9.2
			C482.3,210.6,486.3,214.2,488.9,218.9"/>
		<path class="st10" d="M466.7,292.6l-8.5-4c-0.5-0.3-1-0.4-1.5-0.4c-0.6,0.1-1.1,0.5-1.5,1c-2,2.4-2.4,5.9-0.9,8.7
			c1.6,2.8,5,4,8,2.9c3-1.2,4.5-4.8,4.7-8L466.7,292.6z"/>
		<path class="st4" d="M462.5,301.5c0,0.1-0.4,0.3-1.2,0.5c-1.2,0.2-2.5,0.1-3.6-0.3c-1.8-0.6-3.3-1.9-4.2-3.5
			c-1.2-2-1.4-4.5-0.5-6.7c0.4-1.1,1.1-2.1,2-3c0.4-0.4,0.9-0.7,1.4-1c0.3-0.2,0.6-0.3,1-0.3c0.3,0,0.7,0,1,0.2
			c0.5,0.2,0.9,0.5,1.3,0.8l1.2,0.7l2.1,1.3c2.5,1.6,4,2.7,4,2.8c-0.1,0.1-1.8-0.6-4.4-2l-2.2-1.2l-1.2-0.7
			c-0.4-0.2-0.9-0.5-1.2-0.6c-0.3-0.1-0.7-0.1-0.9,0.1c-0.4,0.3-0.8,0.6-1.1,0.9c-0.7,0.7-1.3,1.6-1.7,2.5c-0.7,1.9-0.6,3.9,0.4,5.7
			c0.8,1.5,2,2.6,3.5,3.2c1,0.4,2.2,0.6,3.3,0.6C462,301.5,462.4,301.5,462.5,301.5z"/>
		<path class="st4" d="M459.8,263.2c-0.1-1.4-0.3-2.8-0.7-4.2c-2.4-9.2-11.8-14.8-21-12.4c-0.5,0.1-1.1,0.3-1.6,0.5
			c-1.6,0.6-3,1.3-4.3,2.3c-1.4,1-2.6,2.2-3.6,3.6c-4.4,6-4.4,14.2,0,20.2c1,1.4,2.2,2.6,3.6,3.6c1.3,1,2.8,1.8,4.3,2.3
			c9,3.2,18.9-1.4,22.1-10.4c0.2-0.5,0.3-1,0.5-1.5C459.4,266,459.7,264.6,459.8,263.2c0,0.1,0,0.2,0,0.3c0,0.2,0,0.5,0,0.8
			c0,0.5,0,0.9-0.1,1.3c-0.1,0.6-0.2,1.2-0.3,1.8c-0.4,1.7-1,3.2-1.9,4.7c-4.3,7.3-13.2,10.5-21.2,7.7c-1.6-0.6-3.1-1.4-4.5-2.4
			c-1.5-1-2.7-2.3-3.8-3.8c-4.6-6.2-4.6-14.7,0-21c1-1.5,2.3-2.7,3.8-3.8c1.4-1,2.9-1.9,4.5-2.4c3-1.1,6.2-1.3,9.3-0.7
			c5,1,9.3,4,11.9,8.4c0.9,1.5,1.5,3.1,1.9,4.7c0.2,0.6,0.3,1.2,0.3,1.8c0.1,0.4,0.1,0.9,0.1,1.3c0,0.3,0,0.6,0,0.8
			C459.8,263,459.8,263.1,459.8,263.2z"/>
		<path class="st4" d="M501.4,261.5c-0.1-1.4-0.3-2.8-0.6-4.1c-1-3.7-3.2-6.9-6.2-9.2c-2.1-1.6-4.5-2.6-7.1-3.1
			c-2.9-0.5-6-0.3-8.8,0.7c-1.5,0.5-2.9,1.3-4.2,2.3c-1.4,1-2.5,2.2-3.5,3.6c-4.3,5.9-4.3,13.9,0,19.7c1,1.4,2.2,2.6,3.5,3.5
			c1.3,1,2.7,1.7,4.2,2.3c2.8,1,5.8,1.3,8.8,0.7c2.6-0.5,5-1.5,7.1-3.1c3-2.3,5.2-5.5,6.2-9.2C501.1,264.3,501.3,262.9,501.4,261.5
			c0,0.4,0,0.7,0,1.1c0,0.4,0,0.9-0.1,1.3c-0.1,0.6-0.2,1.2-0.3,1.8c-1.6,6.5-6.8,11.5-13.4,12.8c-3,0.6-6.2,0.3-9.1-0.7
			c-3.2-1.2-6-3.3-8-6c-4.5-6.1-4.5-14.4,0-20.5c2-2.7,4.8-4.8,8-6c2.9-1,6-1.3,9.1-0.7c6.6,1.3,11.8,6.3,13.4,12.8
			c0.1,0.6,0.3,1.2,0.3,1.8c0.1,0.4,0.1,0.9,0.1,1.3C501.4,260.8,501.4,261.2,501.4,261.5z"/>
		<path class="st4" d="M467.5,257.7c-0.1,0.1-0.5-0.3-1.2-0.6c-1-0.5-2-0.7-3.1-0.7c-1.1,0-2.1,0.3-3,0.8c-0.7,0.4-1.1,0.7-1.2,0.7
			s0.2-0.5,0.9-1c2-1.3,4.5-1.4,6.5-0.1C467.2,257.2,467.5,257.6,467.5,257.7z"/>
		<path class="st4" d="M426,260.7c-2.4,2.2-4.9,4.2-7.6,6.1c-2.5,2-5.2,3.9-8,5.6c2.4-2.2,5-4.2,7.6-6.1
			C420.5,264.2,423.2,262.4,426,260.7z"/>
		<g class="st7">
			<path d="M411.5,339.8c-1.7,16.5,4.6,33.9,17.8,43.9c1,0.8,2.3,1.6,3.6,1.1c0.8-0.4,1.5-1.1,1.8-1.9c3.7-6.4,5.1-13.9,3.9-21.2
				c-2.1,5.5-3.9,10.9-6,16.7C421.2,371.5,414,356.6,411.5,339.8z"/>
		</g>
		<path class="st11" d="M456.4,377.3l9.7-3.6l1.6,16.4c0,0,10.5-19.1,14.8-27.8c4.3-8.7,2.1-24.1,2.1-24.1s1.5,13.4-8.9,30.5
			l-7.9,12.9v-13.5L456.4,377.3z"/>
		<g class="st7">
			<path d="M343.5,460.8c-4.4-1.9-9.3-2.5-14.1-1.8c-5.1,0.4-9.9,2.3-14,5.3c-3.9,3.2-6.6,8.2-6.1,13.2l0.5,0.1
				c3.4-9.2,10.1-15.8,18.8-16.6c8.7-0.8,17.2,3.1,23.1,9.4C351.1,465.7,347.7,462.9,343.5,460.8z"/>
		</g>
		<g class="st7">
			<path d="M589,470.2c-3.4-3.5-7.8-5.7-12.5-6.5c-8.4-1.4-17,1.1-23.4,6.8l1.8-1.5c4.7-2.8,10.1-4.3,15.6-4.2
				c5.5,0.1,10.8,2.2,14.8,5.9c3.6,3.5,5.8,8.1,7.9,12.7C593.9,478.5,592.4,473.7,589,470.2z"/>
		</g>
		<path class="st4" d="M526.4,393.9c0.1-0.5,0.2-0.9,0.4-1.3c0.4-1,0.8-2.1,1.4-3.5c1.2-3,2.8-7.1,4.5-11.7
			c1.7-4.6,3.2-8.8,4.2-11.8l1.2-3.6c0.1-0.4,0.3-0.9,0.5-1.3c0,0.5-0.1,0.9-0.3,1.4c-0.2,0.9-0.6,2.1-1.1,3.6
			c-0.9,3.1-2.4,7.3-4.1,11.9c-1.7,4.6-3.4,8.7-4.7,11.6c-0.6,1.5-1.2,2.7-1.6,3.5C526.8,393.1,526.6,393.5,526.4,393.9z"/>
		<path class="st4" d="M373.1,395.1c-0.2,0-1.5-5.8-3-12.9c-1.5-7.2-2.5-12.9-2.4-13c0.1-0.1,1.5,5.8,2.9,12.9
			C372.2,389.2,373.3,395.1,373.1,395.1z"/>
		<path class="st9" d="M370.8,467.4c0.4,0.2-4.5-37.9-4.5-37.9s3.1-28.9,4.8-30.2v-10.2c0,0,4.7-2.9,6,1.8c0,0,4.2-3.6,4.9,5
			c0.7,8.7,0.9,17.5,0.9,17.5l9.3,23.3l1.5,0.8c0,0,2-18.2,3.2-21s2-9.2,6.4-8.2s4.8,4.6,4,10.6c-0.8,6-1.8,12.2-1.4,16
			c0.4,3.8,2.1,12.3,1.6,19.1c-0.5,6.7-4.2,13.8-8.1,18.8c-3.9,5-11.3,15.3-15.3,18.4C382.8,492.3,370.8,467.4,370.8,467.4z"/>
		<path class="st10" d="M375.5,436.4c-0.1-0.5-0.1-1.1,0-1.6c0.1-1.2,0.2-2.7,0.3-4.4c0.3-3.7,0.7-8.9,1.2-14.6
			c0.3-2.8,0.5-5.5,0.8-8c0.1-1.1,0.1-2.3,0-3.4c-0.1-1-0.6-1.9-1.2-2.6c-1-1.1-2.4-1.7-3.8-1.7c-0.5,0-1.1,0.1-1.6,0.2
			c0.1-0.1,0.3-0.1,0.4-0.2c0.4-0.1,0.8-0.2,1.2-0.3c1.6-0.1,3.1,0.5,4.1,1.6c0.7,0.8,1.2,1.8,1.3,2.9c0.2,1.2,0.2,2.4,0,3.6
			c-0.2,2.4-0.5,5.2-0.7,8c-0.5,5.7-1,10.8-1.4,14.6l-0.5,4.4C375.6,435.4,375.6,435.9,375.5,436.4z"/>
		<path class="st10" d="M380.5,420.9c-0.7,0.9-1.2,1.9-1.7,3c-0.7,2.7-1.3,5.4-1.5,8.2c-0.5,3.3-1,6.2-1.4,8.3
			c-0.1,1.2-0.4,2.3-0.8,3.4c0-1.2,0.1-2.3,0.3-3.5c0.3-2.1,0.7-5.1,1.2-8.4s0.9-6.2,1.8-8.3c0.3-0.8,0.8-1.5,1.3-2.2
			C380.2,421,380.5,420.8,380.5,420.9z"/>
		<path class="st10" d="M377.1,390.4c0.2,0.4,0.3,0.8,0.3,1.2c0.2,0.8,0.4,1.9,0.6,3.3c0.5,2.8,1,6.7,1.3,11.1
			c0.3,4.3,0.4,8.3,0.3,11.1c0,1.4-0.1,2.6-0.1,3.4c0,0.4,0,0.8-0.1,1.2c-0.1-1.5-0.2-3.1-0.2-4.6c-0.1-2.8-0.2-6.8-0.5-11.1
			s-0.8-8.2-1.1-11C377.3,393.4,377.2,391.9,377.1,390.4z"/>
		<path class="st10" d="M404,426.1c-0.9,0.6-2.1,0.7-3.1,0.3c-1.8-0.5-2.6-1.9-2.4-2c0.8,0.5,1.7,1,2.6,1.4
			C402,425.9,403,426,404,426.1z"/>
		<path class="st9" d="M371.3,462.7l-24.6,10.4H332c0,0-14.5,4.5-16.8,18.2c-2.2,13.6-2.6,20.6,3.8,22.3c6.4,1.7,24.4,1.9,33.4-1.1
			s32.4-21.9,32.4-21.9l2.2-13.7L371.3,462.7z"/>
		<path class="st10" d="M377.1,477.8c0,0-0.3-0.2-0.7-0.6c-0.6-0.6-1.1-1.3-1.6-2c-1.5-2.4-2.7-5-3.4-7.8c-0.8-2.7-1.3-5.5-1.5-8.4
			c-0.2-1.2-0.2-2.4-0.1-3.5c0.3,1.1,0.4,2.3,0.5,3.5c0.4,2.8,0.9,5.5,1.7,8.3c0.7,2.7,1.8,5.3,3.2,7.7
			C376.3,476.7,377.2,477.7,377.1,477.8z"/>
		<path class="st10" d="M387.8,482.1c0.7-1.7,1.1-3.5,1.4-5.3c0.6-4.4-0.6-8.8-3.3-12.4c-1.5-2.1-3.2-3.9-4.6-5.7
			c-1.3-1.5-2.4-3.2-3.3-5c-0.6-1.2-1-2.5-1.2-3.9c-0.1-0.5-0.1-1,0-1.5c0.3,1.8,0.9,3.5,1.7,5.2c1,1.7,2.1,3.4,3.4,4.9
			c1.4,1.7,3.1,3.6,4.7,5.7c1.5,2,2.5,4.3,3.1,6.7c0.4,2,0.5,4.1,0.2,6.1c-0.2,1.3-0.6,2.7-1.1,3.9c-0.2,0.4-0.4,0.8-0.5,1
			C388,482,387.9,482.1,387.8,482.1z"/>
		<path class="st8" d="M349.8,422.7c-2.2-3.5-4.2-7.2-6-10.9c-3.2-6.1-5.6-11.1-5.4-11.2c2.2,3.5,4.2,7.2,6,10.9
			C346.4,415.2,348.2,418.9,349.8,422.7z"/>
		<path class="st8" d="M389.7,378.4c1-3.1,2.3-6.2,3.7-9.1c1.2-3,2.7-6,4.3-8.9c-1,3.1-2.3,6.2-3.7,9.1
			C392.7,372.6,391.3,375.5,389.7,378.4z"/>
		<path class="st8" d="M428.7,407.2c-2-1.9-3.9-4-5.6-6.2c-1.9-2.1-3.6-4.3-5.1-6.7c2,1.9,3.9,4,5.6,6.2
			C425.5,402.6,427.2,404.8,428.7,407.2z"/>
		<path class="st8" d="M419.7,446.8c1.2-2.2,2.6-4.3,4.2-6.3c1.4-2.1,3-4.1,4.7-6c-1.2,2.2-2.6,4.3-4.2,6.3
			C423.1,442.9,421.5,444.9,419.7,446.8z"/>
		<path class="st8" d="M407.7,502.7c-0.6-0.8-1-1.6-1.4-2.4c-0.8-1.6-1.8-3.7-2.9-6.2s-1.9-4.7-2.4-6.4c-0.4-0.9-0.6-1.8-0.8-2.7
			c0.5,0.8,0.9,1.7,1.2,2.6l2.6,6.3c1,2.3,1.9,4.4,2.7,6.2C407.1,500.9,407.4,501.8,407.7,502.7z"/>
		<path class="st8" d="M441.9,478.9c-2.5-0.2-5-0.5-7.4-1.1c-2.5-0.4-4.9-0.9-7.3-1.7C432.2,476.6,437.1,477.6,441.9,478.9
			L441.9,478.9z"/>
		<path class="st8" d="M468.7,426.6c2.2-2.8,4.5-5.5,7-8c2.4-2.7,4.9-5.2,7.5-7.6c-2.2,2.8-4.5,5.5-7,8.1
			C473.8,421.7,471.3,424.3,468.7,426.6z"/>
		<path class="st8" d="M495.4,496.4c-0.1,0.1-4.1-4.4-8.8-10.2c-4.7-5.7-8.4-10.5-8.3-10.6s4.1,4.4,8.8,10.2
			C491.9,491.5,495.6,496.2,495.4,496.4z"/>
		<path class="st8" d="M329.1,466.7c0.1,0.2-3.5,2-7.4,5c-3.9,3-6.6,6-6.8,5.8c0.4-0.8,1-1.5,1.7-2.1c1.5-1.6,3-3,4.7-4.3
			c1.7-1.3,3.5-2.4,5.4-3.4C327.4,467.2,328.3,466.9,329.1,466.7z"/>
		<path class="st8" d="M339.1,439.8c-0.8,1.7-1.7,3.4-2.9,4.9c-1,1.6-2.1,3.1-3.4,4.5c0.8-1.7,1.7-3.3,2.9-4.9
			C336.7,442.6,337.8,441.1,339.1,439.8z"/>
		<path class="st8" d="M361.7,466.2c-1.9-3.1-2.8-6.8-2.4-10.4c0.2,0,0.2,2.4,0.9,5.3C360.9,463.9,361.9,466.1,361.7,466.2z"/>
		<path class="st8" d="M365,382.4c-1.5,0.5-3.1,0.9-4.7,1c-1.6,0.3-3.2,0.4-4.8,0.4c1.5-0.5,3.1-0.9,4.7-1
			C361.8,382.4,363.4,382.3,365,382.4z"/>
		<path class="st8" d="M382,352.3c-2.6,1.9-5.5,3.5-8.5,4.7c1.2-1.1,2.6-1.9,4.1-2.6C379,353.5,380.4,352.8,382,352.3z"/>
		<path class="st8" d="M429.7,365c-1.7-1.7-3.3-3.6-4.7-5.6c-1.6-1.9-3-3.9-4.2-6C424.1,357,427,360.9,429.7,365z"/>
		<path class="st8" d="M490.2,395.2c-3.4-3.3-5.9-7.4-7.4-11.8c0.2-0.1,1.5,2.8,3.5,6C488.4,392.7,490.3,395.1,490.2,395.2z"/>
		<path class="st8" d="M513.3,402.8c-1.5,4.3-3.3,8.4-5.6,12.3c0.6-2.2,1.5-4.3,2.5-6.3C511,406.8,512.1,404.7,513.3,402.8z"/>
		<path class="st8" d="M516.5,371.3c-2.2-2.1-4.3-4.4-6.2-6.9c-2-2.3-3.9-4.7-5.7-7.3C509,361.6,512.9,366.3,516.5,371.3z"/>
		<path class="st8" d="M481.2,345.7c-0.4-1.9-0.6-3.9-0.5-5.9c-0.2-2-0.2-4,0.1-5.9c0.4,1.9,0.6,3.9,0.5,5.9
			C481.5,341.8,481.5,343.7,481.2,345.7z"/>
		<path class="st8" d="M510,344.1c-2.5,0.6-5,1.1-7.5,1.3c-2.5,0.4-5,0.7-7.6,0.7c2.5-0.6,5-1.1,7.5-1.3
			C505,344.4,507.5,344.1,510,344.1z"/>
		<path class="st8" d="M555.3,377.4c-1.7-2.8-3.2-5.6-4.5-8.6c-1.5-2.9-2.8-5.8-3.9-8.9c1.7,2.8,3.2,5.6,4.5,8.6
			C552.9,371.4,554.2,374.3,555.3,377.4z"/>
		<path class="st8" d="M547.7,406.1c0.5-4.6,1.4-9.2,2.7-13.7c-0.1,2.3-0.5,4.6-1.1,6.9C549.1,401.7,548.5,403.9,547.7,406.1z"/>
		<path class="st8" d="M568.7,428.8c-1.4-3-2.6-6.1-3.6-9.3c-1.2-3.1-2.2-6.3-3-9.6c1.4,3,2.6,6.2,3.6,9.4
			C566.9,422.4,567.9,425.6,568.7,428.8z"/>
		<path class="st8" d="M565.8,442.1c-2.2-0.3-4.3-1.1-6.1-2.2c-2-1-3.7-2.3-5.2-3.9c0.1-0.1,2.4,1.7,5.5,3.4
			S565.8,441.9,565.8,442.1z"/>
		<path class="st8" d="M592.7,472.3c-1.6-2.7-2.9-5.5-3.8-8.5C590.6,466.4,591.8,469.3,592.7,472.3z"/>
		<path class="st8" d="M433.7,514.5c-0.5-1.8-0.8-3.6-0.9-5.4c-0.3-1.8-0.4-3.6-0.3-5.5c0.6,1.8,0.9,3.6,1,5.4
			C433.7,510.8,433.8,512.7,433.7,514.5z"/>
		<path class="st8" d="M516.3,512.4c0.1-1.8,0.3-3.5,0.8-5.3c0.3-1.8,0.8-3.5,1.4-5.1c-0.1,1.8-0.3,3.5-0.8,5.3
			C517.4,509,517,510.7,516.3,512.4z"/>
	</g>
	<g id="freepik--speech-bubble--inject-157">
		<path class="st3" d="M532.1,271.3l10.7-18.8c-14.7-23.7-7.4-54.7,16.3-69.4c23.7-14.7,54.7-7.4,69.4,16.3s7.4,54.7-16.3,69.4
			c-17.9,11.1-40.7,9.9-57.3-2.9l0,0L532.1,271.3z"/>
		<path class="st4" d="M532.1,271.3l22.8-5.2h0.2l-0.1-0.2l0,0l-0.2,0.2c3.2,2.5,6.7,4.6,10.4,6.2c4.4,2,9,3.3,13.8,3.9
			c2.6,0.4,5.3,0.5,8,0.4c1.4-0.1,2.8-0.1,4.2-0.2l4.3-0.6c12.7-2.5,23.9-9.7,31.5-20.2c4.2-5.8,7.1-12.4,8.5-19.5
			c1.4-7.4,1.2-15.1-0.6-22.4c-1.9-7.6-5.6-14.7-10.8-20.7l-2.1-2.4c-0.7-0.8-1.5-1.4-2.2-2.1c-0.7-0.7-1.5-1.4-2.3-2l-2.4-1.8
			c-0.8-0.6-1.6-1.2-2.5-1.7l-2.6-1.6l-2.7-1.3c-0.9-0.5-1.8-0.9-2.7-1.2c-7.2-2.8-14.9-4-22.6-3.5c-7.3,0.5-14.3,2.6-20.7,6.1
			c-11.5,6.4-20,16.9-23.9,29.5c-1.6,5.3-2.3,10.8-2.2,16.4c0.1,4.8,0.9,9.6,2.4,14.1c1.3,3.8,2.9,7.4,5,10.8v-0.2
			C535.9,264.4,532.6,270.3,532.1,271.3c0.5-0.9,3.9-6.8,10.8-18.8v-0.1v-0.1c-2-3.4-3.7-7-4.9-10.8c-1.5-4.5-2.3-9.3-2.4-14
			c-0.1-5.5,0.7-11,2.2-16.2c3.9-12.4,12.4-22.8,23.7-29.1c6.3-3.5,13.3-5.6,20.5-6.1c7.6-0.5,15.2,0.6,22.3,3.4
			c0.9,0.4,1.8,0.8,2.7,1.2l2.7,1.3l2.6,1.6c0.8,0.5,1.7,1,2.4,1.6l2.4,1.8c0.8,0.6,1.5,1.3,2.2,2s1.5,1.3,2.2,2.1l2,2.2
			c5.1,5.9,8.8,12.9,10.7,20.5c1.8,7.2,2,14.8,0.6,22.1c-1.4,6.9-4.3,13.5-8.4,19.2c-7.4,10.4-18.6,17.6-31.1,20.1l-4.2,0.7
			c-1.4,0.1-2.8,0.2-4.1,0.2c-2.6,0.1-5.3,0-7.9-0.4c-4.7-0.6-9.4-1.9-13.7-3.8c-3.7-1.6-7.1-3.7-10.3-6.2l-0.9-0.7l0.7,0.9l0,0
			l0.1-0.2L532.1,271.3z"/>
		<path class="st4" d="M599.3,224c0,2.7,2.2,4.8,4.9,4.8c2.7,0,4.8-2.2,4.8-4.9c0-2.6-2.2-4.8-4.8-4.8c-2.7,0-4.9,2.1-4.9,4.8
			C599.3,223.9,599.3,224,599.3,224z"/>
		<path class="st4" d="M579.6,224c0,2.7,2.2,4.8,4.9,4.8c2.7,0,4.8-2.2,4.8-4.9c0-2.7-2.2-4.8-4.9-4.8
			C581.8,219.1,579.6,221.2,579.6,224C579.6,224,579.6,224,579.6,224z"/>
		<path class="st4" d="M560,221.5c-1.3,2.3-0.5,5.3,1.8,6.6c2.3,1.3,5.3,0.5,6.6-1.8c1.3-2.3,0.5-5.2-1.8-6.6
			C564.4,218.4,561.4,219.1,560,221.5C560,221.5,560,221.5,560,221.5z"/>
	</g>
</g>
</svg>
